<?xml version="1.0" encoding="UTF-8" standalone="no"?>
<!-- Created with Inkscape (http://www.inkscape.org/) -->

<svg
   xmlns:dc="http://purl.org/dc/elements/1.1/"
   xmlns:cc="http://creativecommons.org/ns#"
   xmlns:rdf="http://www.w3.org/1999/02/22-rdf-syntax-ns#"
   xmlns:svg="http://www.w3.org/2000/svg"
   xmlns="http://www.w3.org/2000/svg"
   xmlns:sodipodi="http://sodipodi.sourceforge.net/DTD/sodipodi-0.dtd"
   xmlns:inkscape="http://www.inkscape.org/namespaces/inkscape"
   width="1108.3129"
   height="761.224"
   id="svg2"
   version="1.1"
   inkscape:version="0.48.2 r9819"
   sodipodi:docname="sickle.svg">
  <defs
     id="defs4" />
  <sodipodi:namedview
     id="base"
     pagecolor="#ffffff"
     bordercolor="#666666"
     borderopacity="1.0"
     inkscape:pageopacity="0.0"
     inkscape:pageshadow="2"
     inkscape:zoom="0.35"
     inkscape:cx="-178.2023"
     inkscape:cy="458.83509"
     inkscape:document-units="px"
     inkscape:current-layer="layer1"
     showgrid="false"
     fit-margin-top="0"
     fit-margin-left="0"
     fit-margin-right="0"
     fit-margin-bottom="0"
     inkscape:window-width="1920"
     inkscape:window-height="1086"
     inkscape:window-x="4"
     inkscape:window-y="24"
     inkscape:window-maximized="0" />
  <metadata
     id="metadata7">
    <rdf:RDF>
      <cc:Work
         rdf:about="">
        <dc:format>image/svg+xml</dc:format>
        <dc:type
           rdf:resource="http://purl.org/dc/dcmitype/StillImage" />
        <dc:title></dc:title>
      </cc:Work>
    </rdf:RDF>
  </metadata>
  <g
     inkscape:label="Layer 1"
     inkscape:groupmode="layer"
     id="layer1"
     transform="translate(275.36913,-115.68751)">
    <flowRoot
       xml:space="preserve"
       id="flowRoot3111"
       style="font-size:40px;font-style:normal;font-weight:normal;line-height:125%;letter-spacing:0px;word-spacing:0px;fill:#000000;fill-opacity:1;stroke:none;font-family:Sans"
       transform="translate(-41.287616,-161.45536)"><flowRegion
         id="flowRegion3113"><rect
           id="rect3115"
           width="1202.8572"
           height="577.14288"
           x="-620"
           y="162.58969" /></flowRegion><flowPara
         id="flowPara3117" /></flowRoot>    <g
       id="g3001">
      <path
         inkscape:connector-curvature="0"
         id="path3090"
         d="m 830.99902,444.27862 c -0.10125,-0.0866 -1.12932,-6.6311 -2.28469,-14.54333 -1.62188,-11.10679 -2.5372,-15.69442 -4.01559,-20.12663 -1.05318,-3.15742 -2.90454,-9.07583 -4.11423,-13.15199 -1.20967,-4.07617 -2.73088,-8.59538 -3.3805,-10.04268 -0.64961,-1.44731 -2.06003,-5.21268 -3.13421,-8.3675 -2.19142,-6.43604 -3.99212,-10.73645 -5.3544,-12.78711 -0.5045,-0.75948 -1.35163,-2.40308 -1.88256,-3.65246 -0.53088,-1.24939 -1.88571,-4.44416 -3.01073,-7.09949 -1.12501,-2.65533 -2.35209,-6.04553 -2.72683,-7.53377 -0.61379,-2.43752 -9.85483,-21.02907 -11.63283,-23.40345 -0.39926,-0.5332 -1.60956,-2.69444 -2.68953,-4.80278 -1.07998,-2.10832 -2.59151,-4.51817 -3.35895,-5.35521 -0.76745,-0.83704 -1.42776,-1.78337 -1.46736,-2.10297 -0.0683,-0.55124 -5.83936,-9.70606 -7.58661,-12.03488 -3.13871,-4.18342 -6.39981,-9.17674 -6.49501,-9.94497 -0.12041,-0.97187 -6.54073,-9.93994 -9.0484,-12.63904 -0.82179,-0.88456 -3.05134,-3.70193 -4.95453,-6.26084 -4.06572,-5.46656 -11.52051,-14.1737 -19.20342,-22.42943 -3.01778,-3.24279 -7.00617,-7.59081 -8.86311,-9.66227 -10.56917,-11.79027 -14.14671,-15.45796 -20.02903,-20.53371 -5.0952,-4.39655 -11.68927,-10.53973 -12.5255,-11.66903 -0.97373,-1.31497 -8.23933,-7.73531 -12.08931,-10.68288 -4.67649,-3.58035 -16.45292,-12.0044 -18.88217,-13.50702 -1.10711,-0.68481 -3.78532,-2.51395 -5.95159,-4.06478 -2.16627,-1.55082 -5.98915,-4.17078 -8.49529,-5.82213 -2.50615,-1.65135 -5.14715,-3.4261 -5.86889,-3.94388 -1.48996,-1.06893 -9.32074,-5.36389 -18.27959,-10.02585 -3.33879,-1.73741 -8.23438,-4.33942 -10.87908,-5.78225 -6.30446,-3.43942 -14.36832,-6.91032 -24.94683,-10.7378 -4.72435,-1.70934 -8.91999,-3.30908 -9.32362,-3.55497 -0.40365,-0.2459 -1.83746,-0.66919 -3.18625,-0.94065 -1.3488,-0.27148 -2.88673,-0.74247 -3.4176,-1.04665 -2.45738,-1.40802 -20.73028,-7.06026 -29.52727,-9.13347 -2.03208,-0.47892 -4.18495,-1.05752 -4.78416,-1.28578 -0.59921,-0.22828 -1.42675,-0.37326 -1.83898,-0.32218 -0.41223,0.0511 -1.14608,-0.39602 -1.63078,-0.99355 -0.48471,-0.59752 -1.40786,-1.02117 -2.05148,-0.94142 -0.6436,0.0797 -2.75741,-0.17252 -4.69736,-0.56059 -8.51801,-1.70396 -20.77326,-3.51194 -32.12363,-4.73909 -3.66581,-0.39633 -8.0403,-0.91148 -9.72111,-1.14478 -1.68078,-0.2333 -5.18937,-0.32556 -7.79682,-0.20504 -5.55932,0.25697 -14.39462,-0.21206 -16.34967,-0.86792 -1.06151,-0.35611 -2.03401,-0.0904 -4.33672,1.18472 -3.26132,1.806 -8.82433,3.74046 -9.65723,3.35819 -0.98917,-0.45402 -5.21734,1.1001 -5.12045,1.88209 0.0598,0.48254 -1.5557,1.33425 -4.34889,2.29278 -5.87075,2.0147 -7.64791,3.14463 -9.93343,6.31593 -0.89368,1.24007 -1.07583,2.21211 -0.74539,3.97808 l 0.43726,2.33704 2.99203,0.0243 c 7.52403,0.0612 17.68707,1.35843 21.07558,2.6901 0.58672,0.23058 2.96482,0.57577 5.28469,0.76709 2.31985,0.19133 4.88208,0.67382 5.69386,1.07222 0.81177,0.39839 2.69101,0.76074 4.17607,0.8052 1.48507,0.0445 3.41783,0.4454 4.29501,0.89094 0.87718,0.44554 3.39198,1.2018 5.58844,1.68055 4.11175,0.89624 6.98881,1.66982 10.14409,2.72758 0.99606,0.33391 2.17509,0.562 2.62004,0.50688 0.44496,-0.0551 2.80024,0.59457 5.23394,1.4438 2.43371,0.84923 4.72717,1.50759 5.09657,1.46303 0.3694,-0.0446 4.11929,1.10489 8.33308,2.55432 4.2138,1.44943 7.83405,2.61394 8.04499,2.58781 0.21096,-0.0262 0.84746,0.2689 1.41446,0.65565 0.56699,0.38674 2.56318,1.12871 4.43597,1.64879 1.8728,0.5201 4.26456,1.39666 5.31503,1.94791 1.05048,0.55126 3.0276,1.34936 4.39361,1.77358 1.36601,0.42421 2.94606,1.09603 3.51119,1.49294 0.56514,0.39691 3.42646,1.60253 6.3585,2.67915 5.82331,2.13827 7.69456,2.93989 11.7102,5.01649 1.46264,0.75637 3.02771,1.32957 3.47792,1.27379 0.45023,-0.0557 1.7602,0.6562 2.91105,1.58217 1.15085,0.92598 3.16348,2.08845 4.47252,2.58327 1.30902,0.49483 2.67956,1.14581 3.04562,1.44664 0.36606,0.30082 2.1188,1.42004 3.89498,2.48716 1.77617,1.06712 3.3796,2.06677 3.56315,2.22144 0.18356,0.15467 1.93037,1.22591 3.88177,2.38054 1.95143,1.15463 5.30123,3.22231 7.44404,4.59486 7.22373,4.62704 11.23323,6.98479 11.76581,6.9188 0.29132,-0.0361 3.13583,1.66097 6.32111,3.77126 3.18528,2.11029 6.51547,4.17955 7.40043,4.59838 0.88494,0.41882 1.86268,1.07279 2.17275,1.45325 0.31008,0.38046 0.79483,0.66312 1.07724,0.62813 0.28242,-0.035 4.42592,2.94875 9.20781,6.63055 4.78191,3.68179 8.92586,6.66547 9.2088,6.63043 0.28294,-0.0351 1.51245,1.0904 2.73225,2.50102 1.21978,1.41063 4.78094,4.53684 7.91366,6.94714 6.52079,5.01706 12.77562,10.57218 16.10712,14.30525 1.26279,1.415 3.17356,3.32303 4.24615,4.24007 1.07259,0.91704 1.98437,1.94332 2.02616,2.28061 0.0418,0.3373 1.55369,2.04034 3.35977,3.78456 1.80609,1.74421 4.13982,4.21834 5.18604,5.4981 1.04623,1.27973 2.93565,3.2201 4.19872,4.3119 1.26305,1.09184 3.31343,3.45082 4.55639,5.24221 1.24296,1.79137 2.80676,3.72731 3.47512,4.30209 0.66834,0.57476 1.87807,2.03895 2.68829,3.25372 0.81021,1.21477 2.09373,2.64425 2.85225,3.17662 0.75853,0.53235 1.41872,1.28729 1.4671,1.67764 0.0483,0.39036 0.87122,1.60371 1.82859,2.69634 0.95735,1.09263 1.76866,2.2127 1.8029,2.48905 0.0342,0.27634 1.39254,2.18093 3.01845,4.23243 1.62591,2.05148 4.24285,5.72264 5.81543,8.15812 1.5726,2.43548 3.33334,5.04194 3.91275,5.79213 0.57943,0.75018 1.72334,2.49152 2.54202,3.86964 0.8187,1.37813 1.796,2.8711 2.1718,3.31772 0.37578,0.44663 1.56677,2.31665 2.64663,4.1556 1.07987,1.83895 2.59842,4.3409 3.37457,5.55989 0.77614,1.21901 2.34406,3.98386 3.48424,6.14412 1.14019,2.16026 3.77087,6.81102 5.84597,10.335 4.04783,6.87416 9.8944,18.57519 12.51718,25.05128 0.88758,2.19156 2.53385,5.75374 3.65838,7.91595 1.12453,2.1622 2.91845,6.78212 3.98646,10.2665 1.06802,3.48437 2.64615,7.86202 3.50697,9.72811 0.8608,1.86609 1.95531,4.95861 2.43226,6.87226 0.47691,1.91365 1.6981,4.83234 2.71367,6.48598 1.7504,2.85009 1.94864,3.71247 3.80795,16.56555 2.62932,18.17585 3.24974,23.15598 2.96269,23.78142 -0.13278,0.2893 -0.0943,3.17938 0.0855,6.42241 0.1798,3.24303 0.17091,6.53638 -0.0198,7.31856 -0.19068,0.78217 -0.0531,3.59778 0.30549,6.25689 0.71527,5.30232 0.44785,7.79247 -2.13706,19.90033 -0.91448,4.28341 -1.57954,8.4591 -1.47791,9.27932 0.10162,0.82022 -0.0804,2.40759 -0.40469,3.52748 -0.32421,1.11991 -1.43096,5.437 -2.45945,9.59355 -1.02846,4.15656 -2.08953,7.7338 -2.35789,7.94942 -0.26836,0.21562 -0.41977,0.94213 -0.33647,1.61449 0.0833,0.67235 -0.37107,1.8902 -1.00973,2.70633 -1.30028,1.66162 -3.49986,6.13476 -7.68519,15.62891 -3.44894,7.82369 -7.50634,13.94377 -13.44896,20.28603 -1.29311,1.38009 -3.30064,3.53032 -4.46117,4.7783 -1.16054,1.24798 -3.32242,3.34011 -4.80417,4.64919 -2.54088,2.24475 -4.69005,4.32276 -7.74079,7.48444 -3.11906,3.23251 -7.73678,7.01711 -10.45347,8.56748 -1.6084,0.91789 -3.26454,2.18011 -3.6803,2.80494 -1.00135,1.50485 -8.87102,6.43663 -10.62526,6.65867 -0.75948,0.0959 -2.12317,0.69672 -3.03049,1.33472 -1.52128,1.06967 -9.40172,4.72009 -18.37399,8.51128 -2.03081,0.85811 -4.65073,1.69447 -5.82203,1.85854 -1.1713,0.16408 -3.23771,0.85557 -4.59202,1.53664 -1.35432,0.68107 -3.49374,1.59908 -4.75427,2.04004 -1.26044,0.44122 -3.82982,1.41601 -5.70955,2.1668 -3.18588,1.27246 -20.90233,4.47004 -31.28284,5.64611 -13.14973,1.48981 -18.4037,1.93737 -21.59188,1.83932 -1.9803,-0.0609 -5.89026,-0.13601 -8.68881,-0.16688 -6.4883,-0.0717 -10.32621,-0.23049 -14.12079,-0.58469 -1.6632,-0.15525 -4.245,-0.36677 -5.73736,-0.47004 -1.49235,-0.10327 -4.2377,-0.54901 -6.10076,-0.99054 -1.86305,-0.44153 -4.05197,-0.73875 -4.86425,-0.66049 -0.81228,0.0783 -2.18614,-0.15428 -3.05304,-0.51675 -0.86689,-0.36248 -2.60432,-0.54119 -3.86096,-0.39713 -1.94499,0.22293 -8.18623,-1.46868 -10.59231,-2.87097 -0.35438,-0.20653 -1.46229,-0.46364 -2.462,-0.57133 -0.99972,-0.1077 -4.18046,-0.81081 -7.06832,-1.56247 -2.88786,-0.75166 -6.59606,-1.3695 -8.24045,-1.37299 -3.13428,-0.007 -11.99862,2.40465 -13.16354,3.58078 -0.36178,0.36525 -1.40256,0.94303 -2.31285,1.28396 -2.10454,0.78821 -7.96874,6.96361 -13.3409,14.04891 -2.29634,3.02864 -7.03048,8.78579 -10.52032,12.79366 -3.48983,4.00787 -6.30508,7.61039 -6.25612,8.00558 0.12101,0.97665 -1.61242,2.90806 -2.73478,3.04712 -0.50153,0.0621 -1.24956,-0.20463 -1.66228,-0.59284 -0.45372,-0.42677 -3.4467,-0.67273 -7.57007,-0.62212 -6.04093,0.0742 -7.13577,0.23408 -9.58813,1.40048 -2.74235,1.30433 -5.88771,4.76446 -6.93377,7.62768 -0.28082,0.76862 -2.14393,2.8149 -4.14024,4.54729 -9.41705,8.17208 -9.75354,8.4816 -21.5862,19.85484 -8.25495,7.93447 -20.82264,21.07876 -27.4526,28.71219 -1.61897,1.86398 -4.83283,5.22131 -7.14192,7.46073 -2.30908,2.23943 -4.97835,4.84085 -5.93168,5.78094 -0.95334,0.94011 -3.54069,3.46131 -5.74968,5.60267 -2.209,2.14136 -4.44614,4.4497 -4.97139,5.12974 -0.52527,0.67998 -1.68974,1.82015 -2.58771,2.53369 -0.89797,0.71348 -2.1822,1.93502 -2.85382,2.71449 -0.67163,0.77954 -1.90786,1.50236 -2.74716,1.60635 -1.2207,0.15125 -1.5778,0.57718 -1.78484,2.12903 -0.24766,1.85626 -2.60463,4.69176 -4.04865,4.87068 -0.68146,0.0844 -4.96248,4.66469 -10.52984,11.26581 -1.59875,1.8956 -3.90347,4.46777 -5.12162,5.7159 -3.31731,3.39902 -10.10231,11.22969 -17.85412,20.60566 -5.81117,7.02876 -10.23143,13.53228 -12.48844,18.37406 -1.55765,3.34156 -3.95489,7.00155 -5.12844,7.82997 -1.12904,0.79702 -1.27045,1.27418 -0.82732,2.79148 0.31695,1.0848 0.2603,2.34709 -0.13877,3.09942 -1.06788,2.01297 -1.72288,6.21741 -1.8263,11.72323 -0.12087,6.43309 0.40567,14.17843 1.04362,15.35109 0.26889,0.49424 0.77715,2.40198 1.12969,4.23935 0.61557,3.20911 3.45461,9.00455 4.35643,8.89277 0.23904,-0.0298 0.39152,0.60215 0.33883,1.40399 -0.0684,1.04047 0.38986,1.78461 1.60063,2.59959 0.93296,0.62802 1.75631,1.5566 1.82962,2.06358 0.17079,1.18177 1.75315,2.81348 2.62382,2.7056 0.36911,-0.0455 0.74655,0.52622 0.83884,1.27103 0.21436,1.72999 1.38553,2.63792 3.12465,2.4225 0.90332,-0.11193 1.6111,0.28862 2.08162,1.17796 0.45983,0.86919 1.54059,1.49911 3.04465,1.77444 3.10158,0.56792 7.52131,2.0254 8.01861,2.64427 0.21943,0.27308 0.99273,0.4231 1.71844,0.33313 0.72566,-0.0899 1.59871,0.0282 1.94015,0.26283 0.68448,0.47007 7.119,1.13815 7.91582,0.82178 0.27541,-0.10927 2.13159,-0.19584 4.12493,-0.19223 2.62586,0.008 4.57921,-0.37143 7.09079,-1.36534 1.90653,-0.75451 4.20563,-1.46341 5.10907,-1.57535 0.90345,-0.11194 2.78321,-0.91081 4.17728,-1.7753 5.04682,-3.12973 7.02242,-4.31709 9.35891,-5.62521 1.3085,-0.73253 2.63422,-1.73042 2.94607,-2.21753 0.31184,-0.4871 1.39926,-1.41486 2.4165,-2.06162 1.01726,-0.64682 2.85894,-2.31014 4.09263,-3.69634 1.23372,-1.38619 3.04927,-3.07004 4.03459,-3.74202 0.98532,-0.67192 1.74309,-1.61228 1.68393,-2.08969 -0.0592,-0.47748 0.24547,-0.91183 0.67695,-0.96523 0.43148,-0.0536 1.30487,-1.14631 1.94086,-2.42853 0.63601,-1.28215 1.98802,-2.91116 3.00448,-3.61984 1.01646,-0.70873 2.20115,-1.95568 2.63264,-2.77113 2.17602,-4.11236 5.50114,-8.34392 6.67027,-8.48877 0.42372,-0.0523 0.88024,-0.57984 1.01446,-1.17187 0.28155,-1.24183 2.37197,-4.28885 11.09363,-16.17012 3.45154,-4.70195 7.34366,-10.21497 8.64919,-12.25106 1.30551,-2.03618 3.07297,-4.09878 3.9277,-4.58363 0.95858,-0.5437 1.70075,-1.62048 1.93685,-2.81 0.21052,-1.06071 1.21784,-2.78194 2.23846,-3.82495 1.02063,-1.04301 2.18542,-2.78867 2.58842,-3.87919 0.40299,-1.09059 1.84032,-3.38842 3.19407,-5.10632 1.35372,-1.71795 3.14622,-4.44113 3.98332,-6.05155 0.8371,-1.61043 1.76208,-2.95776 2.05549,-2.99411 0.29345,-0.0363 1.33725,-1.44349 2.31957,-3.12697 0.98233,-1.68347 2.51201,-4.09235 3.39929,-5.35305 0.88728,-1.2607 2.19545,-3.30586 2.90704,-4.54481 1.63157,-2.84067 10.24719,-15.41928 12.0807,-17.6375 0.75694,-0.91577 2.65583,-3.74903 4.21977,-6.29611 1.56394,-2.54709 3.21251,-4.82775 3.66349,-5.06812 0.45099,-0.24036 0.77459,-0.80328 0.71911,-1.25099 -0.0554,-0.44763 1.00839,-2.17444 2.3641,-3.83735 1.35572,-1.66289 4.06789,-5.28434 6.02704,-8.04766 1.95915,-2.76332 4.13899,-5.68376 4.8441,-6.48987 0.70509,-0.80616 2.55652,-3.23284 4.11426,-5.39261 4.07692,-5.65271 6.64334,-8.91965 9.1921,-11.70102 1.87874,-2.05017 2.19513,-2.78862 1.97077,-4.59942 -0.147,-1.18642 0.06,-3.0429 0.46011,-4.12547 0.63048,-1.70611 0.55865,-2.59691 -0.53903,-6.68593 -1.23445,-4.59843 -1.23632,-4.79155 -0.0736,-7.64946 0.74564,-1.83279 1.70991,-3.13199 2.57221,-3.46563 0.8132,-0.31462 1.66356,-1.39183 2.07169,-2.62426 0.38076,-1.14978 1.11505,-2.28473 1.63175,-2.52207 0.51671,-0.23734 1.99359,-1.72593 3.28197,-3.30796 3.2141,-3.94668 9.43527,-9.09911 12.48569,-10.34079 5.13534,-2.09036 11.52448,-1.13579 16.9993,2.53978 1.54841,1.03954 5.69605,3.19693 9.21697,4.79418 6.22201,2.82261 32.312,12.38099 41.71107,15.28142 2.56396,0.79117 6.40072,1.99442 8.52614,2.6738 2.12542,0.67946 4.48481,1.15846 5.2431,1.0645 0.75829,-0.094 1.67424,0.0595 2.03544,0.34113 0.61113,0.47635 5.07108,1.25433 13.08016,2.28153 18.82081,2.41388 29.27755,1.86658 57.91015,-3.03112 17.7794,-3.04128 32.73494,-7.91676 43.38177,-14.14238 2.9125,-1.70306 7.18219,-4.11505 9.4882,-5.35994 4.76328,-2.57148 15.63037,-9.98037 18.95766,-12.92485 1.22259,-1.08191 3.72148,-2.96995 5.55309,-4.19564 6.27603,-4.19982 16.46574,-13.73622 23.28479,-21.79189 0.71702,-0.84706 2.20459,-2.23815 3.30571,-3.09132 2.27033,-1.7591 5.94754,-6.54248 11.2331,-14.61225 1.99218,-3.04156 4.77748,-7.15283 6.18957,-9.13614 3.32093,-4.66435 7.81179,-13.83176 11.22369,-22.91153 1.4902,-3.96574 3.46049,-8.88185 4.3784,-10.92469 0.91791,-2.04285 2.25771,-5.84051 2.97733,-8.43924 0.71961,-2.59872 1.95486,-6.55363 2.74498,-8.78868 0.79011,-2.23504 1.54266,-4.74938 1.67233,-5.58742 0.19122,-1.23586 2.20152,-9.61889 3.76751,-15.71076 2.58525,-10.05669 3.65534,-22.05805 3.24142,-36.35329 -0.09,-3.10842 0.0404,-5.99603 0.28981,-6.41692 0.61174,-1.03248 -1.1129,-31.98356 -1.81573,-32.58514 z m -5.46211,27.52871 c -0.30333,1.60943 -0.37833,6.7943 -0.16673,11.52194 0.21166,4.72762 0.19676,9.08322 -0.033,9.67908 -0.22985,0.59586 -0.34528,1.69735 -0.25656,2.44775 0.16944,1.43501 -1.00351,8.61474 -1.61195,9.86483 -0.19551,0.40169 -0.43772,2.4891 -0.53824,4.63869 -0.15923,3.40484 -1.65987,10.98339 -5.40002,27.27128 -1.5784,6.87364 -6.3325,20.50124 -7.83604,22.4619 -0.26467,0.34514 -0.4095,1.20644 -0.32182,1.91398 0.0906,0.73097 -0.43933,1.79413 -1.22719,2.46222 -0.76262,0.64667 -1.77849,2.3503 -2.2575,3.78583 -1.49383,4.47683 -2.54134,6.80195 -3.86948,8.589 -0.70514,0.94878 -1.62492,2.8884 -2.04395,4.31028 -0.41904,1.42189 -3.32889,6.29281 -6.46632,10.8243 -3.13743,4.53148 -5.67769,8.45484 -5.64501,8.71858 0.0326,0.26373 -0.58965,0.93768 -1.38295,1.49767 -0.7933,0.55998 -1.92132,1.9528 -2.50675,3.09515 -0.58541,1.14235 -2.12979,3.06436 -3.43195,4.27111 -2.2523,2.08729 -6.36467,6.54358 -12.51496,13.5616 -1.53554,1.75219 -3.10185,3.22422 -3.48068,3.27115 -0.37882,0.0469 -1.72453,1.29779 -2.99048,2.77967 -2.1804,2.55231 -6.69409,6.18597 -14.72584,11.85475 -1.96527,1.3871 -4.04842,3.02906 -4.62922,3.6488 -0.92167,0.98347 -4.38054,3.20104 -12.73761,8.16639 -1.22498,0.72785 -3.17736,1.76663 -4.33861,2.30847 -1.16125,0.54184 -2.23274,1.24955 -2.38107,1.57276 -0.14834,0.32314 -0.86041,0.66077 -1.58238,0.75022 -0.72197,0.0895 -2.28645,0.82138 -3.47661,1.62648 -1.19016,0.80512 -2.66587,1.37038 -3.27935,1.25616 -0.62684,-0.11667 -2.00229,0.48609 -3.14024,1.37612 -2.29179,1.79252 -4.69747,2.75212 -10.94604,4.36619 -2.38946,0.61726 -4.72363,1.31872 -5.18707,1.55883 -0.46344,0.24011 -2.81931,0.76647 -5.23529,1.16971 -11.42023,1.90617 -15.30176,2.65707 -20.02979,3.87494 -3.43539,0.88489 -5.93256,1.22825 -7.64124,1.05067 -1.396,-0.14512 -3.82544,-0.1109 -5.39879,0.076 -1.5733,0.18716 -4.42202,0.1353 -6.33042,-0.11474 -1.90839,-0.25003 -5.45555,-0.34031 -7.88256,-0.20051 -2.42701,0.13972 -5.90044,0.18845 -7.71873,0.10827 -6.98595,-0.30808 -15.68117,-1.08522 -16.75359,-1.49736 -0.61624,-0.23678 -3.19112,-0.85892 -5.72191,-1.38245 -2.53079,-0.52347 -6.5398,-1.39792 -8.9089,-1.94315 -2.36909,-0.54523 -4.80038,-0.93143 -5.40287,-0.85821 -1.34534,0.16349 -8.46495,-2.50965 -8.55184,-3.21091 -0.0345,-0.27872 -0.49537,-0.45313 -1.02408,-0.38764 -0.52869,0.0655 -1.44858,-0.30258 -2.0442,-0.81799 -1.26993,-1.09893 -5.90639,-2.10291 -6.71418,-1.45388 -0.30678,0.24649 -0.95167,0.15821 -1.43307,-0.19613 -0.4814,-0.35437 -2.48653,-1.2025 -4.45584,-1.88474 -1.96932,-0.68223 -3.75004,-1.45134 -3.95715,-1.70911 -0.20711,-0.25777 -2.40712,-1.14926 -4.88891,-1.98107 -2.48179,-0.83182 -4.88713,-1.99474 -5.34518,-2.58426 -0.79208,-1.01937 -5.13792,-3.16248 -10.43951,-5.14816 -1.33898,-0.50151 -3.40366,-1.62385 -4.58819,-2.49412 -1.18453,-0.87026 -2.91465,-1.66453 -3.84473,-1.76505 -0.93009,-0.10051 -1.5635,-0.46066 -1.40759,-0.80035 0.65148,-1.41938 7.63617,0.96406 12.21867,4.16949 2.41062,1.68619 9.87055,5.66715 10.47855,5.59182 0.18613,-0.023 1.40343,0.45519 2.70516,1.06279 2.37471,1.10842 13.16909,5.0437 15.4831,5.64463 0.67945,0.17644 3.66344,1.13041 6.63111,2.11995 2.96768,0.98952 6.87392,2.12023 8.68057,2.51269 1.80664,0.39245 4.81007,1.08252 6.6743,1.53346 12.28203,2.97096 30.75915,4.11555 48.19408,2.98543 17.38758,-1.127 20.90994,-1.6155 31.14829,-4.31969 4.6164,-1.21929 9.82965,-2.56674 11.58503,-2.99431 8.84197,-2.1536 27.35838,-9.79015 28.20364,-11.63174 0.13678,-0.29801 0.76653,-0.60599 1.39946,-0.6844 0.63292,-0.0784 1.57912,-0.45544 2.10267,-0.83779 0.52355,-0.38238 2.96984,-1.77793 5.4362,-3.10124 2.46637,-1.32332 6.5859,-3.89911 9.15453,-5.724 2.5686,-1.82487 5.9141,-4.13432 7.43444,-5.13207 3.23604,-2.12375 10.69386,-8.03102 11.43188,-9.05507 0.28056,-0.3893 1.57574,-1.6273 2.87818,-2.75111 1.30244,-1.12382 2.60291,-2.54871 2.88994,-3.16642 0.28702,-0.61772 0.72307,-1.14805 0.96899,-1.17852 0.24592,-0.0304 0.86001,-0.52264 1.36465,-1.09373 0.50462,-0.57108 2.82917,-2.97868 5.16565,-5.35022 3.86669,-3.9247 7.18291,-8.05494 16.05439,-19.99522 4.54696,-6.11982 7.04441,-9.96859 10.69475,-16.4814 8.62334,-15.38552 11.74111,-21.96906 11.46381,-24.20718 -0.096,-0.77488 0.25127,-1.21645 1.03287,-1.31329 0.69194,-0.0857 1.12889,-0.53841 1.05959,-1.09772 -0.0824,-0.66507 -0.46458,-0.81373 -1.26867,-0.49345 -1.0241,0.40793 -0.97236,-0.002 0.47023,-3.7248 3.7095,-9.57302 8.88728,-31.81797 8.3727,-35.97106 -0.15473,-1.24874 -0.0689,-2.82131 0.19086,-3.49463 0.56687,-1.46971 1.70568,-17.2171 1.85038,-25.58717 0.14616,-8.45535 -2.61607,-35.08518 -5.0508,-48.69288 -1.22138,-6.82668 -3.03565,-14.64037 -4.51978,-19.46635 -1.36363,-4.43412 -3.46624,-11.5714 -4.67247,-15.86061 -2.38999,-8.49855 -3.38938,-11.35813 -8.61094,-24.63859 -1.91064,-4.85953 -4.01805,-10.38214 -4.68312,-12.27248 -0.66509,-1.89034 -2.30618,-5.72218 -3.64688,-8.51517 -2.19668,-4.57621 -11.27834,-23.08583 -14.09828,-28.73416 -0.61655,-1.23494 -1.40649,-2.30278 -1.75544,-2.37296 -0.34894,-0.0701 -0.69947,-0.65253 -0.77897,-1.29411 -0.19936,-1.60905 -3.05288,-6.48019 -5.43684,-9.28107 -1.0886,-1.27896 -1.99529,-2.45477 -2.01489,-2.61291 -0.12169,-0.98215 -11.6245,-18.02722 -13.9741,-20.70707 -1.56967,-1.79031 -3.51145,-4.29538 -4.31508,-5.56682 -2.24217,-3.54743 -6.36989,-9.19013 -8.6086,-11.76818 -1.10848,-1.2765 -2.02954,-2.43497 -2.04681,-2.57434 -0.0172,-0.1394 -1.14856,-1.6005 -2.51395,-3.2469 -1.36541,-1.64641 -2.71058,-3.43528 -2.98926,-3.97529 -0.27868,-0.54002 -1.52193,-1.9598 -2.76278,-3.15509 -1.24085,-1.19528 -2.28802,-2.43095 -2.32705,-2.74592 -0.039,-0.31498 -0.81042,-1.11288 -1.7142,-1.77311 -0.90379,-0.66023 -1.67284,-1.43929 -1.70901,-1.73126 -0.0832,-0.67117 -5.99649,-6.68432 -7.0586,-7.17775 -0.43569,-0.20242 -1.948,-1.60929 -3.36068,-3.1264 -1.41267,-1.51711 -2.98225,-2.86101 -3.48793,-2.98643 -0.50569,-0.12544 -0.95646,-0.52684 -1.00171,-0.89202 -0.0452,-0.36516 -1.74511,-2.14316 -3.77747,-3.95109 -2.03235,-1.80791 -3.72641,-3.53896 -3.76454,-3.84676 -0.07,-0.5646 -0.63976,-1.10411 -5.88168,-5.56898 -1.58628,-1.35113 -2.95609,-3.03731 -3.04404,-3.74705 -0.16045,-1.29503 -4.17207,-4.79985 -5.32972,-4.6564 -0.33987,0.0421 -0.68464,-0.46164 -0.76613,-1.11944 -0.0815,-0.65781 -0.53628,-1.29227 -1.01061,-1.40992 -0.47432,-0.11765 -2.34673,-1.65991 -4.1609,-3.42723 -1.81418,-1.76733 -6.52625,-5.38132 -10.47126,-8.0311 -3.94503,-2.64979 -9.2484,-6.3718 -11.78527,-8.27114 -5.19056,-3.88616 -18.31702,-12.03103 -19.21095,-11.92027 -0.68604,0.085 -5.76974,-3.94137 -5.85606,-4.63808 -0.0505,-0.40777 -10.64181,-6.20789 -12.48747,-6.83854 -0.35309,-0.12065 -3.93961,-1.86588 -7.97005,-3.87829 -4.03045,-2.0124 -8.3094,-3.97998 -9.50879,-4.37237 -3.81168,-1.24705 -7.16395,-2.68179 -10.43939,-4.46797 -1.75008,-0.95435 -6.86704,-3.27946 -11.37104,-5.16691 -4.50401,-1.88745 -8.76202,-3.68598 -9.46224,-3.99671 -1.84491,-0.81873 -4.6956,-1.71863 -7.16241,-2.26103 -5.23929,-1.15201 -6.77682,-1.64441 -11.88886,-3.8075 -2.98354,-1.26244 -6.54754,-2.3449 -7.92003,-2.40545 -1.37249,-0.0606 -2.52277,-0.33072 -2.55617,-0.60034 -0.0334,-0.26964 -0.85447,-0.5642 -1.82458,-0.65461 -0.97011,-0.0904 -1.95736,-0.52749 -2.1939,-0.97128 -0.23652,-0.44379 -1.04178,-0.73109 -1.78943,-0.63846 -0.74767,0.0926 -1.98791,-0.165 -2.75613,-0.57252 -0.76821,-0.40752 -3.10386,-1.06208 -5.19032,-1.45457 -2.08646,-0.39249 -4.1117,-0.91113 -4.50055,-1.15255 -0.38883,-0.2414 -2.96987,-0.7904 -5.73562,-1.22 -3.00262,-0.46637 -5.06705,-1.09103 -5.12397,-1.55043 -0.12857,-1.0376 3.42972,-0.84931 7.52185,0.39805 1.70848,0.52078 4.88619,1.19948 7.0616,1.50821 2.17539,0.30875 4.38196,0.74842 4.90347,0.97705 2.00535,0.87916 5.18233,1.70232 6.12113,1.586 0.53963,-0.0668 2.08614,0.27955 3.43669,0.76979 1.35056,0.49024 2.77656,0.85158 3.16892,0.80296 0.39235,-0.0486 1.65485,0.64551 2.80553,1.5425 1.17157,0.91323 3.75905,1.99488 5.88024,2.45808 4.20985,0.91932 10.09921,2.82159 13.50792,4.36307 1.2283,0.55546 3.07701,1.08856 4.10824,1.18466 1.03123,0.0961 2.85164,0.73343 4.04535,1.41625 2.63291,1.50608 7.79301,3.43941 8.83522,3.31027 0.41664,-0.0516 3.18278,1.21971 6.14698,2.82518 2.96421,1.60547 5.8435,2.86278 6.39845,2.79402 0.55494,-0.0688 1.37827,0.22233 1.82961,0.64686 0.45134,0.42454 1.41497,0.8798 2.14141,1.0117 0.72643,0.1319 1.91286,0.67615 2.63653,1.20945 2.87723,2.12036 6.06432,3.93114 6.76604,3.84419 0.40717,-0.0504 2.05463,0.50577 3.66104,1.23604 1.6064,0.73027 4.10801,1.68263 5.5591,2.11636 1.45111,0.43373 2.68025,1.12657 2.73143,1.53964 0.0512,0.41307 0.73126,1.01681 1.51129,1.34166 3.579,1.49046 14.05506,7.79653 19.86394,11.95712 0.90204,0.64608 2.40666,1.39111 3.3436,1.65563 0.93696,0.26452 1.75073,0.86179 1.80841,1.32724 0.0577,0.46546 1.34012,1.58853 2.84989,2.49571 1.50976,0.90718 3.30196,2.18728 3.98266,2.84468 0.68071,0.65739 1.73045,1.13421 2.33276,1.05958 0.60231,-0.0746 1.32485,0.36446 1.60565,0.97572 0.2808,0.61129 1.92049,1.79544 3.64376,2.63144 1.72326,0.83599 3.32374,1.9348 3.55664,2.44178 0.2329,0.50697 3.02334,2.90708 6.201,5.33355 7.93045,6.05572 16.56045,13.26309 19.83755,16.56741 1.50292,1.51541 3.18221,3.12734 3.73173,3.58207 1.12645,0.93212 1.93441,1.82018 5.79374,6.36814 1.49068,1.75667 3.05178,3.42064 3.46912,3.69772 0.41733,0.27709 1.51879,1.35115 2.44769,2.38683 0.92888,1.03568 2.38991,2.46872 3.24673,3.18454 0.85682,0.71581 3.73877,3.51961 6.40435,6.23065 2.66557,2.71105 5.04474,4.90461 5.28703,4.87459 0.24229,-0.0301 0.68189,0.56923 0.9769,1.33166 0.295,0.76244 0.91049,1.69496 1.36772,2.0723 0.45726,0.37732 1.59028,1.80256 2.51784,3.16719 1.98857,2.9256 8.03054,9.66616 9.66921,10.7872 0.63023,0.43116 1.46429,1.18266 1.85347,1.67002 0.38918,0.48735 2.61709,3.02279 4.95093,5.63429 4.32211,4.83636 5.33966,6.17364 14.12985,18.57002 2.7496,3.87763 5.35609,7.40956 5.79218,7.84871 0.43609,0.43915 1.43746,1.92914 2.22526,3.3111 0.78779,1.38195 1.80465,2.87002 2.25969,3.30683 0.45502,0.43681 1.28927,1.94751 1.8539,3.3571 0.56462,1.40961 1.41725,2.91804 1.89475,3.35206 0.47748,0.43401 1.15279,1.42639 1.50069,2.20526 0.34789,0.77887 1.74626,3.16121 3.10747,5.2941 1.36121,2.13287 3.75157,6.40989 5.31187,9.50447 1.56033,3.09458 3.29064,6.16612 3.84514,6.82563 0.5545,0.6595 1.07306,1.72266 1.15235,2.36259 0.0793,0.63992 0.3994,1.28065 0.71136,1.42383 0.56887,0.26111 4.67884,9.0424 8.21537,17.55281 1.03953,2.50153 2.93729,6.83957 4.21725,9.6401 1.27997,2.80053 2.62924,6.13049 2.9984,7.39992 1.15884,3.98495 5.37246,16.51245 6.75589,20.086 0.72876,1.88245 1.7765,5.11526 2.32832,7.18403 0.55182,2.06878 1.22369,4.13762 1.49306,4.59742 0.42562,0.72654 3.5575,13.6833 6.38355,26.40907 0.49741,2.2399 1.80499,11.68677 2.90563,20.99305 1.58036,13.36217 1.88521,17.53588 1.44963,19.84676 z m -9.75466,-2.93366 c 0.12858,4.02494 0.44544,7.71518 0.70411,8.20053 0.25867,0.48533 0.14635,2.43879 -0.24962,4.34101 -0.39597,1.90222 -0.82678,6.29644 -0.95735,9.76493 -0.32404,8.60797 -1.32426,17.75229 -2.78312,25.44435 -0.67139,3.53999 -1.29244,7.25227 -1.38011,8.2495 -0.56846,6.46639 -10.33021,36.49143 -13.09994,40.2927 -0.70741,0.97085 -1.51959,2.32193 -1.80484,3.0024 -0.80639,1.92364 -10.09196,16.83163 -12.85323,20.6359 -1.36103,1.87511 -2.4503,3.62414 -2.42063,3.88674 0.0295,0.26259 -1.11412,1.96723 -2.54177,3.78808 -1.42765,1.82084 -3.42379,4.41075 -4.43586,5.75533 -1.01208,1.3446 -4.1077,4.38844 -6.87918,6.76409 -2.77147,2.37566 -5.13375,4.70124 -5.24952,5.16797 -0.11577,0.46674 -0.77966,1.19564 -1.4753,1.61981 -2.51662,1.53449 -3.83154,2.70958 -6.55625,5.85902 -1.13974,1.31741 -6.62316,5.90195 -7.13498,5.96536 -0.45705,0.0567 -6.69684,5.68649 -6.97552,6.2937 -0.14685,0.31993 -0.64178,0.62813 -1.09984,0.6849 -0.45806,0.0567 -2.55264,1.22063 -4.65463,2.58641 -2.10199,1.36577 -4.55853,2.76555 -5.45897,3.1106 -0.90042,0.34507 -3.13062,1.60066 -4.95597,2.79024 -1.82536,1.18957 -4.5992,2.68487 -6.16412,3.32288 -7.25079,2.95617 -14.61555,5.77722 -18.54825,7.10483 -2.36693,0.79903 -7.25663,2.49775 -10.86601,3.77487 -8.1175,2.87235 -15.85349,4.39993 -31.93741,6.30664 -9.46829,1.12233 -13.55416,1.36747 -16.91172,1.01405 -8.1777,-0.86073 -9.57845,-0.95286 -11.28071,-0.74194 -3.06663,0.37997 -11.08941,-0.48139 -16.11144,-1.72979 -2.71393,-0.67462 -6.45892,-1.58943 -8.32221,-2.03288 -1.86331,-0.44344 -3.67509,-0.95356 -4.02618,-1.1336 -0.3511,-0.18003 -1.53727,-0.40616 -2.63594,-0.50251 -3.55637,-0.31188 -8.74108,-1.9694 -9.78796,-3.12915 -0.56119,-0.62172 -1.90368,-1.206 -2.98329,-1.29842 -1.07962,-0.0924 -3.01856,-0.54598 -4.30877,-1.00797 -6.03456,-2.16075 -7.18407,-2.59626 -9.2519,-3.5053 -1.21707,-0.53502 -3.59179,-1.54495 -5.27718,-2.24427 -4.25602,-1.76594 -9.48014,-4.42263 -10.29579,-5.23583 -0.37513,-0.37401 -2.00148,-1.05514 -3.61412,-1.5136 -1.61263,-0.45844 -3.73255,-1.28444 -4.71094,-1.83551 -2.38174,-1.34152 -10.35237,-1.82031 -14.51556,-0.87193 -4.01466,0.91453 -10.78371,3.18738 -12.82557,4.30645 -0.84767,0.46458 -2.18119,2.2932 -3.0659,4.20416 -0.86114,1.86009 -2.3052,3.9272 -3.209,4.5936 -0.90381,0.6664 -2.443,2.37336 -3.42044,3.79326 -1.22953,1.78613 -2.09354,2.50316 -2.80392,2.32696 -1.86196,-0.46185 -1.91564,-1.83962 -0.19451,-4.99228 1.23167,-2.25609 2.72414,-3.82398 5.42762,-5.70185 2.05086,-1.42455 4.56119,-3.78541 5.57852,-5.24634 1.01734,-1.46093 2.12225,-2.69001 2.45539,-2.73128 0.33314,-0.0413 1.49967,-0.85835 2.5923,-1.8157 1.09264,-0.95736 2.45806,-1.79906 3.03426,-1.87046 1.94842,-0.24142 4.42249,-2.55981 4.25019,-3.98273 -0.22349,-1.84722 -1.57022,-2.02506 -5.28199,-0.69769 -3.47806,1.24377 -15.23173,8.79574 -15.118,9.71361 0.0393,0.31647 -0.49512,0.88907 -1.18741,1.27243 -0.69227,0.38337 -2.5009,2.01311 -4.01916,3.62165 -1.51827,1.60854 -3.67027,3.89193 -4.78224,5.07418 l -2.02174,2.14957 -2.64542,-2.76689 c -1.45497,-1.52179 -3.14417,-4.00902 -3.75379,-5.52718 -1.09287,-2.7217 -1.08687,-2.78723 0.42826,-4.68603 0.84513,-1.05916 1.74838,-1.95197 2.00722,-1.98405 0.25883,-0.0321 1.2726,-1.5994 2.25284,-3.48297 1.17345,-2.25484 2.53277,-3.88162 3.97942,-4.76244 1.20844,-0.73576 2.2849,-1.80905 2.39214,-2.38504 0.10722,-0.57599 0.83935,-1.77187 1.62696,-2.65748 1.60058,-1.79977 8.40927,-6.36045 9.74215,-6.52559 0.47343,-0.0587 0.96647,-0.33711 1.09572,-0.61853 0.12922,-0.28151 2.87229,-0.76371 6.09573,-1.07155 4.88391,-0.46639 6.38557,-0.37276 9.00919,0.56178 1.73163,0.6168 4.73035,1.17518 6.66382,1.24085 4.71973,0.16026 15.81915,1.80255 18.4416,2.72863 1.16206,0.41035 2.85131,0.65461 3.75391,0.54277 0.90259,-0.11183 1.82054,0.02 2.0399,0.29304 0.21934,0.273 1.50195,0.54504 2.85023,0.60453 1.34827,0.0595 4.45538,0.48121 6.90467,0.93717 2.44928,0.45595 7.11133,0.81171 10.36011,0.79057 10.00899,-0.0651 14.04144,-0.0141 20.59014,0.26127 7.30791,0.30716 12.11098,-0.23498 27.41438,-3.09445 22.50654,-4.20538 32.10142,-6.64796 42.0154,-10.69589 3.28606,-1.34171 7.27904,-2.76769 8.87331,-3.16884 1.59424,-0.40115 3.78171,-1.2012 4.86103,-1.7779 1.07931,-0.57669 4.48703,-2.38389 7.57272,-4.016 4.72167,-2.4974 11.83637,-7.08449 21.31282,-13.74109 1.05863,-0.74362 3.73351,-3.03777 5.94416,-5.0981 2.21064,-2.06033 5.60716,-5.04356 7.54781,-6.62941 1.94066,-1.58585 4.52855,-3.87505 5.7509,-5.08714 5.12343,-5.08042 6.29718,-6.32083 6.4401,-6.80579 0.0829,-0.2812 0.98967,-1.4696 2.01512,-2.64088 2.51264,-2.87 4.17788,-5.29878 7.45471,-10.87281 1.08622,-1.84773 3.24843,-5.10994 4.80488,-7.24935 2.67276,-3.67382 2.8397,-3.80037 3.00558,-2.27867 0.27766,2.54688 2.1266,2.22449 4.30948,-0.75144 2.51022,-3.42218 5.81164,-7.03135 7.52938,-8.23123 0.77753,-0.54312 2.31032,-2.13651 3.40622,-3.54084 1.0959,-1.40434 2.26382,-2.59581 2.59539,-2.64771 0.51865,-0.0812 3.46558,-2.98428 10.10773,-9.95743 0.87285,-0.91632 3.73816,-3.84454 6.36738,-6.50711 2.62922,-2.66259 5.16759,-5.46722 5.64085,-6.23251 0.95808,-1.54932 0.96622,-3.49685 0.0141,-3.37889 -1.34117,0.16618 -5.04693,3.00417 -8.93744,6.84456 -2.24833,2.21941 -5.49717,5.42042 -7.21964,7.1134 -1.72246,1.69298 -4.75849,4.7718 -6.74674,6.84182 -6.71664,6.99288 -11.38264,11.83682 -13.04721,13.54479 l -1.65657,1.69975 1.07365,-2.01871 c 0.59051,-1.11029 1.00555,-2.56835 0.92232,-3.24012 -0.14033,-1.13253 2.81538,-5.28069 7.22577,-10.14094 3.89337,-4.29046 9.18591,-9.96624 10.19009,-10.92793 0.58783,-0.56296 3.9545,-3.78713 7.48149,-7.16483 3.52698,-3.37768 7.47304,-7.16091 8.76904,-8.40715 1.29598,-1.24624 3.34612,-3.39733 4.55588,-4.78019 1.20976,-1.38286 2.48239,-2.54933 2.82806,-2.59217 1.06905,-0.13245 6.9415,-7.70585 6.80836,-8.78037 -0.1708,-1.37844 -1.80753,-1.02726 -3.85271,0.82665 -0.9211,0.83495 -3.58565,3.21237 -5.92122,5.28315 -4.03752,3.57975 -9.72906,9.01515 -11.43053,10.91607 -1.63971,1.83193 -11.26695,10.4771 -11.73133,10.53464 -0.26709,0.0331 -2.45556,2.47254 -4.86327,5.421 -2.40772,2.94846 -4.82234,5.68577 -5.36583,6.08294 -1.87721,1.3718 0.59219,-3.97072 2.82236,-6.10613 1.12155,-1.07392 3.07956,-3.28055 4.35113,-4.90366 1.27156,-1.6231 3.2507,-3.72019 4.39809,-4.66019 1.14739,-0.94 3.06786,-3.02551 4.26769,-4.63446 1.19984,-1.60895 2.40171,-2.95263 2.6708,-2.98598 0.2691,-0.0333 1.83254,-1.63936 3.47429,-3.56893 1.64176,-1.92958 4.24096,-4.73998 5.77598,-6.24534 1.53503,-1.50535 3.33654,-3.34264 4.00335,-4.08284 0.66682,-0.7402 3.07299,-3.19043 5.34703,-5.44493 5.611,-5.56277 9.6567,-10.77931 9.47807,-12.22101 -0.26957,-2.17573 -2.28534,-1.02733 -7.06839,4.02693 -2.57043,2.71618 -5.31515,5.46173 -6.09938,6.10124 -0.78422,0.6395 -3.29333,3.18592 -5.57579,5.6587 -2.28245,2.4728 -5.06378,5.45589 -6.18074,6.62912 -2.29344,2.40895 -1.98365,2.07097 -6.93136,7.56228 -2.0229,2.24514 -4.64345,4.97463 -5.82344,6.06553 -1.18,1.09088 -3.05325,3.05376 -4.16278,4.36193 -1.2101,1.42676 -1.82682,1.8765 -1.54124,1.12392 0.26186,-0.69003 0.93348,-2.80413 1.49253,-4.698 0.69246,-2.34593 1.76194,-4.18801 3.35555,-5.77972 1.28654,-1.28498 3.39269,-3.60356 4.68035,-5.15242 2.43449,-2.92829 7.43345,-8.48451 10.79233,-11.99537 1.07059,-1.11902 2.46246,-2.63653 3.09306,-3.37225 0.63061,-0.73571 2.81379,-2.96262 4.85153,-4.94868 2.03776,-1.98605 4.62103,-4.59273 5.74064,-5.7926 1.1196,-1.19987 2.34576,-2.41524 2.72481,-2.70082 1.64837,-1.24191 7.0739,-8.16153 6.98184,-8.90451 -0.14754,-1.19081 -1.6695,-1.38373 -3.07716,-0.39007 -1.15743,0.81704 -8.49643,7.88896 -12.32969,11.88099 -0.97435,1.01473 -3.6455,3.74855 -5.93587,6.07518 -9.06045,9.20384 -11.89201,12.27443 -15.41716,16.71855 l -3.66981,4.62648 0.85401,-6.84204 c 0.4697,-3.7631 0.77024,-9.79077 0.66786,-13.39478 -0.19411,-6.83279 -0.12972,-13.04028 0.1832,-17.65786 0.1011,-1.49208 -0.47105,-8.12762 -1.27144,-14.74564 l -1.45526,-12.03275 5.09412,-6.35218 c 2.80178,-3.4937 6.97739,-8.33082 9.27913,-10.74918 2.30176,-2.41835 4.78376,-5.14698 5.51558,-6.06361 0.7318,-0.91665 2.71362,-3.04854 4.40405,-4.73756 1.69041,-1.689 3.59375,-3.76202 4.22963,-4.6067 l 1.15614,-1.53578 0.72313,2.79743 c 0.93955,3.63462 2.92658,9.74413 5.94878,18.29064 1.9843,5.61143 2.72598,8.85822 4.04193,17.69414 0.88642,5.95191 1.77895,10.95205 1.98341,11.11143 0.53839,0.41967 2.38612,20.89099 2.6603,29.47408 z m -32.48411,74.69103 c -0.93181,0.11545 -1.97477,0.64821 -2.31771,1.18387 -0.34295,0.53568 -0.88402,1.00624 -1.2024,1.04568 -0.31838,0.0394 -1.235,0.7583 -2.03691,1.59745 -0.80195,0.83914 -1.9179,1.91597 -2.47993,2.39297 -5.59759,4.75069 -13.42508,12.72209 -15.7331,16.0223 -1.2231,1.74891 -0.92233,3.53368 0.56446,3.34945 0.64763,-0.0803 1.14738,-0.38923 1.11053,-0.68664 -0.0368,-0.29741 0.85105,-1.27316 1.97309,-2.16835 1.12205,-0.89518 2.27944,-1.86699 2.57198,-2.15956 3.45673,-3.45719 8.79161,-8.40604 12.06395,-11.19101 7.22834,-6.15175 9.40241,-9.87142 5.48604,-9.38616 z m -2.48523,-13.43618 c -1.36216,0.17416 -10.998,9.1195 -16.88823,15.67783 -3.36984,3.75204 -4.0858,6.04525 -1.79894,5.7619 1.17235,-0.14526 8.51541,-6.93259 11.91206,-11.01053 0.92876,-1.11505 1.96249,-2.06253 2.29719,-2.10552 0.85297,-0.10956 5.9991,-6.90217 5.89088,-7.77564 -0.0489,-0.39459 -0.68473,-0.64121 -1.41296,-0.54804 z m -3.66877,34.52395 c -1.07103,0.1327 -6.20109,4.8157 -8.9728,8.19084 -2.26587,2.75919 -2.40819,5.17861 -0.28867,4.9073 1.72062,-0.22026 10.50393,-10.51353 10.3096,-12.08193 -0.0774,-0.62471 -0.54544,-1.0785 -1.04813,-1.01621 z M 796.4227,388.30336 c -2.80511,2.43003 -13.15944,13.12012 -16.30149,16.83012 -1.43415,1.69337 -4.20519,5.02056 -6.15786,7.39372 -3.63909,4.42279 -4.56374,4.71419 -4.97748,1.56865 -0.1524,-1.15868 0.40826,-1.88112 7.27227,-9.37079 1.62848,-1.77692 3.04535,-3.7156 3.14859,-4.30817 0.10326,-0.59257 1.02573,-1.56591 2.04995,-2.16298 1.02422,-0.59707 2.94204,-2.37791 4.26181,-3.95742 3.59521,-4.3028 5.24071,-6.10265 7.29959,-7.98433 1.02523,-0.93699 2.30558,-2.40248 2.84522,-3.25662 0.92682,-1.46699 1.01308,-1.49422 1.55712,-0.49182 1.32169,2.4352 1.05663,3.96001 -0.99771,5.73966 z m -1.34378,-9.8965 c -0.89497,0.4482 -13.92657,14.12241 -16.43179,17.24206 -0.99694,1.24147 -3.82902,4.39484 -6.29351,7.00749 -3.76731,3.99379 -4.56064,4.59172 -4.98172,3.75465 -0.27546,-0.54758 -0.42679,-1.30571 -0.33624,-1.68475 0.19452,-0.81427 8.71644,-10.92854 10.00103,-11.86974 0.48686,-0.35671 1.98958,-1.95522 3.33938,-3.55222 1.3498,-1.59701 2.67612,-2.93115 2.94738,-2.96476 0.27125,-0.0336 1.68179,-1.48618 3.1345,-3.22794 3.52595,-4.22749 4.65803,-7.30242 2.59438,-7.04672 -1.8916,0.23437 -11.62475,9.4895 -18.34204,17.44123 -2.67599,3.16775 -5.10849,5.78964 -5.40556,5.82645 -0.29708,0.0368 -0.6194,-0.57279 -0.71627,-1.35466 -0.12328,-0.99492 1.08862,-3.04185 4.03798,-6.82018 5.51145,-7.06061 18.00463,-21.36867 18.73749,-21.45947 0.31517,-0.0391 1.38422,-1.11164 2.37567,-2.38353 l 1.80265,-2.31253 0.85011,2.1333 c 2.51788,6.31846 3.59051,10.81862 2.68656,11.27132 z m -7.07568,-14.69902 c -1.83479,1.22046 -6.56009,5.63956 -8.91825,8.34033 -0.73559,0.84246 -2.82892,3.0616 -4.65185,4.93142 -1.82293,1.86982 -4.36585,4.76136 -5.65093,6.42563 -4.54213,5.88236 -6.21989,7.51308 -6.73514,6.54635 -0.31782,-0.59632 0.58075,-2.11365 2.80734,-4.74056 1.80113,-2.12493 4.83147,-5.87223 6.7341,-8.32732 1.90262,-2.45507 3.87727,-4.51556 4.38809,-4.57886 0.97315,-0.12057 2.37587,-3.15782 2.1818,-4.72416 -0.32608,-2.63166 -5.72012,1.7049 -14.40668,11.5823 -6.78225,7.71203 -5.5916,4.12718 1.71435,-5.16159 4.99727,-6.35353 6.44419,-8.60071 6.29793,-9.78115 -0.10474,-0.84534 -0.52473,-1.49107 -0.93663,-1.44002 -0.80387,0.0996 -5.37339,4.65852 -7.04198,7.02566 -0.56047,0.7951 -2.22092,2.87962 -3.68989,4.63226 l -2.67085,3.18662 -0.50831,-1.84381 c -0.42229,-1.53175 -0.20097,-2.22638 1.30779,-4.10452 0.99886,-1.24339 2.61838,-3.04629 3.59894,-4.00643 1.29456,-1.26761 1.72527,-2.21033 1.57265,-3.44213 -0.30739,-2.48082 -1.59185,-2.00465 -5.30095,1.96516 -2.76739,2.96193 -3.29328,3.304 -3.87073,2.51779 -0.4972,-0.67698 -0.32707,-1.36737 0.66477,-2.69754 1.34024,-1.79742 1.56788,-4.4415 0.36962,-4.29304 -0.35371,0.0439 -1.25108,0.69304 -1.99418,1.44269 -0.74309,0.74966 -1.55369,1.38813 -1.80134,1.4188 -0.24765,0.0307 -1.1259,-1.84101 -1.9517,-4.15933 -0.82577,-2.31832 -2.16,-5.17937 -2.96494,-6.35791 -0.80494,-1.17853 -3.1258,-5.56847 -5.15746,-9.75542 -2.03167,-4.18696 -4.93559,-9.47638 -6.45317,-11.75428 -3.08336,-4.62816 -5.89655,-9.2001 -5.95595,-9.67949 -0.0215,-0.17355 -2.06792,-3.49915 -4.5476,-7.39021 -2.47968,-3.89106 -5.22775,-8.33059 -6.10682,-9.86562 -0.87905,-1.53505 -1.82408,-3.03201 -2.10004,-3.32661 -0.27599,-0.2946 -1.9022,-2.64871 -3.61382,-5.23136 -1.71164,-2.58265 -3.48673,-5.05281 -3.94467,-5.48926 -0.45794,-0.43645 -1.80411,-2.15273 -2.99149,-3.81396 -1.18738,-1.66124 -4.59941,-6.12239 -7.58228,-9.91371 -2.98287,-3.7913 -5.757,-7.52386 -6.16473,-8.29457 -0.40773,-0.77072 -1.04747,-1.54182 -1.42163,-1.71356 -0.73655,-0.33807 -5.55387,-5.98464 -5.63001,-6.59918 -0.0255,-0.20602 -0.77198,-1.11709 -1.65881,-2.02461 -0.88681,-0.90753 -3.75394,-4.07482 -6.37139,-7.03842 -2.61744,-2.9636 -7.4303,-8.05535 -10.69524,-11.31497 l -5.93624,-5.9266 3.13362,-3.29098 c 3.01104,-3.16226 4.00567,-5.31017 3.02446,-6.53139 -0.91906,-1.14387 -2.51379,-0.23226 -5.88136,3.36206 l -3.43187,3.66293 -1.47887,-1.08008 c -0.81339,-0.59404 -1.50335,-1.27759 -1.53326,-1.519 -0.0299,-0.2414 1.25417,-2.03492 2.85352,-3.98562 3.84847,-4.69386 4.95116,-6.79518 4.30455,-8.20284 -0.9149,-1.99168 -2.58342,-0.98339 -6.7595,4.08471 l -4.07745,4.94843 -1.46164,-1.06408 -1.46166,-1.06407 4.62816,-6.22084 c 3.36389,-4.5215 4.5359,-6.56093 4.29046,-7.4659 -0.7509,-2.76871 -3.45574,-0.80886 -10.50701,7.61308 -1.16405,1.39032 -2.28071,2.5482 -2.48144,2.57307 -0.20074,0.0249 -1.03385,-0.51057 -1.85133,-1.18986 l -1.48634,-1.23507 6.80588,-8.24161 c 5.60334,-6.78539 6.74392,-8.4971 6.45516,-9.68755 -0.1929,-0.79527 -0.77662,-1.47317 -1.29716,-1.50642 -1.24147,-0.0794 -5.68773,4.38103 -10.99298,11.02787 l -4.26674,5.34571 -3.79685,-2.87893 c -2.08827,-1.58341 -5.24576,-3.87512 -7.01663,-5.09268 -1.77087,-1.21756 -5.38993,-3.80478 -8.04232,-5.74935 -2.65239,-1.9446 -5.46667,-3.87416 -6.25393,-4.2879 -1.65861,-0.87169 -4.02509,-2.46867 -10.79954,-7.28785 -4.46867,-3.17892 -9.9614,-6.51182 -14.95841,-9.07649 l -1.96634,-1.0092 1.9424,-3.17417 c 1.06832,-1.7458 3.38715,-4.78318 5.15294,-6.74975 3.41655,-3.805 4.01022,-5.98377 1.54733,-5.6786 -1.62605,0.20146 -4.18137,1.80695 -5.63887,3.54284 -2.92866,3.48808 -8.18695,8.93066 -8.68825,8.99277 -1.8341,0.22725 -0.86451,-1.72066 3.79673,-7.6276 4.02719,-5.10343 5.14798,-6.92787 4.8752,-7.93586 -0.23584,-0.87145 -0.83371,-1.31712 -1.78892,-1.3335 -1.14544,-0.0197 -2.55781,1.41157 -7.00518,7.09864 -4.76702,6.09585 -5.71511,7.03066 -6.57333,6.48123 -0.88114,-0.56409 -0.74262,-1.04733 1.1411,-3.98085 5.07117,-7.89743 5.78251,-10.06659 3.19605,-9.74611 -1.25937,0.15604 -3.67851,2.87759 -7.93637,8.92849 -1.09636,1.55806 -1.48115,1.7523 -2.60928,1.31718 l -1.32328,-0.5104 1.12785,-1.01807 c 0.62031,-0.55993 1.08774,-1.34157 1.03877,-1.73697 -0.049,-0.39541 0.38459,-1.23828 0.96352,-1.87305 0.57893,-0.63477 0.98663,-1.68661 0.90599,-2.33742 -0.25832,-2.08489 -2.74652,-1.12574 -5.28562,2.0375 l -2.30326,2.86944 -3.10586,-1.19556 -3.10585,-1.19555 1.80837,-1.67609 c 4.07933,-3.78091 4.91494,-4.88693 4.74265,-6.27741 -0.14362,-1.15911 -0.47263,-1.38051 -1.79346,-1.20658 -1.14682,0.151 -2.48782,1.27525 -4.60787,3.86306 l -2.99032,3.65006 -2.38391,-1.12178 c -1.31115,-0.61698 -3.9285,-1.67706 -5.81635,-2.35573 -1.88783,-0.67868 -4.44778,-1.87775 -5.68875,-2.66462 -1.24099,-0.78687 -2.71022,-1.37443 -3.26497,-1.30569 -0.55474,0.0687 -1.2052,-0.11968 -1.44545,-0.4187 -0.24026,-0.29903 -0.91134,-0.48489 -1.49127,-0.41303 -0.57995,0.0718 -2.2004,-0.50082 -3.60103,-1.27261 -1.40062,-0.77179 -3.21504,-1.52033 -4.03206,-1.66343 -0.81702,-0.14309 -1.94977,-0.57489 -2.51723,-0.95953 -1.35715,-0.91992 -18.23119,-6.93512 -19.13907,-6.82264 -0.38672,0.0479 -2.2046,-0.49891 -4.03976,-1.21519 -1.83515,-0.71626 -8.06007,-2.51493 -13.83316,-3.99703 -5.77309,-1.48211 -11.33779,-2.97095 -12.36599,-3.30854 -1.02819,-0.33758 -5.16855,-1.18651 -9.20078,-1.8865 -13.95539,-2.42268 -18.9432,-3.2987 -19.55522,-3.43456 -0.68024,-0.15101 0.63357,-0.94044 5.28562,-3.17593 5.61265,-2.69709 16.32193,-2.93847 24.14356,-0.54418 1.02526,0.31385 3.04493,0.56057 4.48815,0.54826 1.44324,-0.0123 2.82365,0.22604 3.0676,0.52968 0.24397,0.30364 1.24108,0.43016 2.21581,0.28114 0.97472,-0.149 2.35943,-0.0444 3.07711,0.23238 0.71768,0.27682 2.46254,0.33895 3.87746,0.13808 2.64318,-0.37524 8.37301,0.28106 11.8433,1.35656 1.07743,0.33391 2.21983,0.57479 2.53865,0.53528 0.31882,-0.0395 1.38758,0.22993 2.37504,0.59875 0.98746,0.36882 2.2441,0.61662 2.79251,0.55071 0.54842,-0.0659 1.93581,0.27578 3.0831,0.75934 1.14728,0.48357 3.03623,0.94975 4.1977,1.03596 1.16144,0.0862 3.77511,0.55481 5.80813,1.04135 2.03304,0.48653 5.27637,0.98854 7.20741,1.11561 3.46734,0.22811 9.66093,1.92572 11.55625,3.16745 0.53676,0.35167 1.85966,0.71571 2.93979,0.80898 1.08013,0.0933 1.99409,0.4135 2.03103,0.71159 0.0369,0.29808 0.58772,0.47748 1.22396,0.39865 0.63626,-0.0788 1.50606,0.35141 1.93291,0.95611 0.42685,0.6047 1.37549,1.02518 2.1081,0.9344 0.73259,-0.0908 3.98789,0.85094 7.234,2.0927 3.24611,1.24175 6.22947,2.21716 6.6297,2.16756 0.40023,-0.0496 2.37026,0.54902 4.37786,1.33024 7.72672,3.00674 15.08082,6.0722 17.4368,7.26832 1.35088,0.68582 3.20752,1.55794 4.12585,1.93801 0.91834,0.38007 2.57924,1.18307 3.69088,1.78444 1.11163,0.60137 2.3804,1.04889 2.81947,0.99449 0.43908,-0.0544 1.98005,0.77635 3.42437,1.84612 2.47498,1.83313 12.06368,6.99529 12.81975,6.90161 0.40112,-0.0497 4.73584,2.51078 7.78472,4.59837 2.5676,1.75805 8.65735,4.68668 9.55668,4.59591 0.36615,-0.0369 1.06158,0.30516 1.5454,0.76024 0.48382,0.45508 2.87365,1.79287 5.31074,2.97287 2.43709,1.18 4.79801,2.41642 5.24647,2.7476 0.44846,0.33118 3.52572,2.41841 6.83834,4.6383 8.65972,5.80315 19.24788,14.05793 20.51057,15.99054 0.5962,0.9125 3.8577,3.88649 7.24776,6.60887 3.39007,2.72236 6.68863,5.54179 7.33013,6.26539 1.52517,1.72033 13.07873,11.73385 13.75476,11.92131 0.79444,0.22028 3.95821,4.24424 4.07442,5.18221 0.0563,0.4544 0.59667,0.89205 1.20083,0.97258 0.60415,0.0805 2.24485,1.45541 3.64601,3.05533 4.34375,4.9599 6.30748,7.09988 9.4916,10.34354 5.5069,5.60985 6.02472,6.26169 5.8738,7.39401 -0.0995,0.74637 1.24159,2.40491 4.03696,4.99264 2.30227,2.13126 4.38205,4.25423 4.62175,4.71771 0.45727,0.88425 1.63872,2.33374 10.1789,12.48826 5.05191,6.00686 11.3756,14.94101 16.72762,23.63288 4.17947,6.78758 5.647,9.07894 6.73973,10.52317 2.39397,3.16403 4.80924,7.22324 7.28808,12.24863 1.45196,2.94361 3.01921,5.84305 3.48278,6.44319 0.46356,0.60015 1.49212,2.62481 2.28567,4.49923 0.79356,1.87441 1.91039,4.06414 2.48186,4.86603 0.57145,0.8019 1.10588,1.99763 1.18759,2.65715 0.0817,0.65951 0.4338,1.33003 0.78242,1.49004 0.34862,0.16001 0.69801,0.80877 0.77644,1.4417 0.0784,0.63292 0.44167,1.58082 0.80722,2.10647 0.36555,0.52561 1.5133,3.00261 2.55055,5.50443 1.03726,2.50181 2.1623,4.91801 2.50012,5.36934 1.02691,1.37201 0.64376,2.56241 -1.22483,3.80535 z M 675.12496,229.17286 c -1.2732,-0.99248 -4.39067,0.86057 -7.9553,4.7287 -1.57107,1.70484 -2.07711,2.75532 -1.92371,3.99339 0.31211,2.51897 1.96394,2.60124 3.64068,0.18132 0.76423,-1.10298 1.912,-2.24543 2.5506,-2.53877 2.66945,-1.22622 5.03719,-5.31272 3.68773,-6.36464 z m -67.37747,-47.64584 c -0.48573,0.0602 -0.8339,0.50683 -0.77372,0.99256 0.0602,0.48574 0.50684,0.83391 0.99257,0.77373 0.48573,-0.0602 0.8339,-0.50684 0.77372,-0.99257 -0.0602,-0.48573 -0.50684,-0.83391 -0.99257,-0.77372 z m -99.25222,-54.41615 c -0.75802,-0.14718 -3.09201,-0.49868 -5.18662,-0.78112 -4.55859,-0.61467 -6.61191,-1.7372 -2.98139,-1.6299 1.2915,0.0382 2.77007,0.21748 3.28568,0.39847 0.51561,0.18098 2.0866,0.37607 3.49108,0.43354 1.66295,0.068 2.59125,0.40828 2.66152,0.97553 0.0792,0.63875 -0.25966,0.7997 -1.27027,0.60348 z m -14.81768,-2.38239 c -0.52345,-0.12983 -0.84111,-0.37797 -0.70589,-0.55143 0.13521,-0.17346 0.55005,-0.17572 0.92185,-0.005 1.01128,0.46417 0.87084,0.8261 -0.21596,0.55652 z m 4.00588,564.60446 c -0.60101,1.48666 -4.41453,7.15293 -7.70037,11.44158 -2.9649,3.86971 -3.548,4.36484 -4.50974,3.82929 -1.01277,-0.56402 -0.95029,-0.85523 0.75205,-3.50502 1.02113,-1.58945 3.54232,-4.98184 5.60264,-7.53865 2.06031,-2.55682 4.35257,-5.66546 5.09391,-6.90809 l 1.34787,-2.25931 -0.14784,2.11064 c -0.0813,1.16084 -0.27865,2.43415 -0.43852,2.82956 z m -12.50741,-18.27177 c -1.04407,0.86117 -4.07761,4.40074 -6.7412,7.86573 l -4.84288,6.29998 -1.45695,-1.39783 c -0.8013,-0.7688 -2.0965,-2.198 -2.87822,-3.17598 -0.78172,-0.978 -2.85298,-2.46993 -4.6028,-3.31542 -4.3901,-2.12123 -6.82267,-3.80267 -8.0111,-5.53739 -0.94348,-1.37717 -0.91058,-1.58496 0.50312,-3.17646 0.83196,-0.93659 1.69915,-1.73452 1.9271,-1.77314 0.22794,-0.0386 0.96542,-1.34907 1.63883,-2.91206 0.67343,-1.563 1.51617,-2.87797 1.87277,-2.92216 0.77888,-0.0965 4.81137,-3.56361 5.53131,-4.75577 0.55591,-0.92056 3.32553,-0.57636 4.20887,0.52305 0.25507,0.31746 1.19754,0.48629 2.09437,0.37518 2.9841,-0.36974 10.04055,3.82034 12.66253,7.51894 1.56876,2.21293 1.6213,2.43922 0.83343,3.5897 -0.46248,0.67533 -1.69511,1.93247 -2.73918,2.79363 z m -7.98033,49.41965 c -2.1119,2.89199 -7.38017,10.33728 -11.70729,16.54508 -4.3271,6.20778 -8.05999,11.31074 -8.29529,11.33989 -0.9454,0.11715 -6.7462,8.06481 -11.25085,15.41482 -2.62691,4.2861 -6.04067,9.58063 -7.58614,11.76554 -5.10134,7.21209 -17.67566,26.15506 -19.21016,28.93984 -0.82882,1.50417 -3.81139,5.7189 -6.62791,9.36616 -2.81651,3.64721 -5.27484,7.00901 -5.46293,7.47066 -0.85419,2.09636 -11.02592,14.72686 -11.95242,14.84167 -0.57102,0.0707 -2.08001,1.67005 -3.35333,3.55394 -4.94781,7.32051 -7.9559,10.92769 -12.27761,14.72294 -2.46997,2.16911 -4.65422,3.96401 -4.85386,3.98876 -0.19964,0.025 -1.22452,0.80736 -2.2775,1.73922 -1.05297,0.93193 -4.59366,2.73319 -7.86818,4.00276 -3.27451,1.26967 -6.84703,2.83266 -7.93893,3.47328 -2.7127,1.5916 -8.79543,2.18698 -13.30678,1.30254 -2.03286,-0.39853 -5.01107,-0.88529 -6.61814,-1.08157 -1.60707,-0.19626 -4.60243,-1.20636 -6.65628,-2.24464 -4.11969,-2.08259 -10.02445,-7.05698 -10.99663,-9.2641 -0.34283,-0.77828 -1.36902,-2.409 -2.28044,-3.62376 -0.91136,-1.21483 -2.4506,-3.84874 -3.42053,-5.85313 -2.10588,-4.35203 -3.14139,-11.71746 -2.41705,-17.19264 0.25645,-1.9383 0.35326,-4.43636 0.2151,-5.55119 -0.17214,-1.38929 0.0906,-2.30419 0.83524,-2.90825 0.59756,-0.48466 1.00812,-1.51336 0.91235,-2.28586 -0.16437,-1.32678 2.15429,-8.67104 2.97246,-9.41493 0.20932,-0.19034 1.05801,-1.64054 1.88596,-3.22271 2.06768,-3.95109 9.06733,-12.98824 19.19899,-24.78761 1.00567,-1.17118 3.63173,-3.98968 5.83571,-6.26326 2.20397,-2.27362 4.30303,-4.59588 4.66455,-5.16058 0.36153,-0.56471 0.92831,-1.06033 1.25951,-1.10137 0.33121,-0.041 2.25604,-2.15207 4.27741,-4.69122 2.02138,-2.53908 4.43289,-5.33454 5.35892,-6.21202 0.92601,-0.87752 2.45954,-2.56796 3.40782,-3.75653 0.94827,-1.18864 2.29786,-2.38311 2.99909,-2.65443 0.70122,-0.27132 1.36129,-0.95705 1.46681,-1.52386 0.10552,-0.56688 0.86644,-1.55965 1.69092,-2.2063 0.82448,-0.64662 2.59819,-2.53863 3.94157,-4.20454 1.34341,-1.66586 2.70211,-3.06102 3.01934,-3.10033 0.31723,-0.0394 0.86538,-0.5793 1.21811,-1.2 0.35272,-0.62072 1.59643,-1.7836 2.76378,-2.58421 1.16737,-0.8006 2.4956,-2.06467 2.95164,-2.80906 0.45604,-0.74433 1.90455,-2.23437 3.2189,-3.31114 1.31436,-1.07683 3.46563,-3.21181 4.7806,-4.74443 1.31498,-1.53267 3.83545,-4.15446 5.60105,-5.82618 1.76563,-1.67172 3.61782,-3.70694 4.116,-4.52262 0.49818,-0.81573 1.21731,-1.52511 1.59807,-1.57646 0.65605,-0.0885 3.92989,-3.28023 11.46424,-11.17697 1.83811,-1.92651 3.68781,-3.68009 4.11045,-3.89685 0.42263,-0.21676 2.00167,-1.75747 3.50896,-3.42378 1.50728,-1.66632 3.18087,-3.35324 3.71906,-3.74873 0.53821,-0.39546 1.9989,-1.85938 3.246,-3.25311 8.52454,-9.52703 8.42788,-9.45097 13.68464,-10.76777 2.67482,-0.67003 3.69967,-0.6791 4.99161,-0.0442 l 1.62572,0.79893 -1.66301,1.31659 c -0.91467,0.72414 -2.03085,2.0651 -2.48042,2.97993 -0.44958,0.91483 -2.26845,2.63647 -4.04197,3.82588 -1.7735,1.18939 -3.19656,2.38845 -3.16235,2.66459 0.0782,0.63132 -3.57311,3.78485 -5.30163,4.57882 -0.71279,0.32744 -3.13171,2.21229 -5.37535,4.18864 -2.24366,1.97629 -4.7811,4.17574 -5.63877,4.8877 -1.73772,1.44236 -1.89132,2.28414 -0.48062,2.63405 0.85742,0.21269 5.30083,-3.11645 5.6375,-4.22375 0.0778,-0.25563 0.74171,-0.39079 1.47549,-0.30041 0.97806,0.12056 2.32094,-0.79483 5.03118,-3.4294 3.51075,-3.41283 6.47347,-5.73801 11.44664,-8.98359 1.21678,-0.79412 3.7634,-3.27242 5.65917,-5.50742 3.43342,-4.0478 3.45607,-4.0623 5.81564,-3.72289 2.77673,0.39941 6.59123,3.37146 11.08319,8.63539 2.74225,3.21357 3.01232,3.76213 2.66671,5.41674 -0.40694,1.94821 -5.5084,8.69677 -8.72226,11.53843 -1.09633,0.96935 -1.96224,2.36276 -2.02928,3.26544 -0.0643,0.86598 -1.21376,2.94122 -2.55435,4.61152 -1.63845,2.04149 -2.28043,3.33153 -1.95851,3.93558 0.59376,1.11403 3.10851,0.87047 3.90807,-0.37847 0.32591,-0.50906 1.56043,-1.56344 2.74338,-2.34308 l 2.15082,-1.41757 -0.7096,1.34391 c -0.39027,0.73911 -4.47487,6.24906 -9.07687,12.24431 -7.82615,10.19551 -11.41004,15.07867 -15.71066,21.40626 -0.97335,1.43206 -3.26287,4.80087 -5.08785,7.48623 -1.82498,2.68537 -3.64965,5.52803 -4.05481,6.31705 -1.96769,3.83212 -32.23829,43.26658 -31.38931,40.89189 0.90942,-2.54384 3.93518,-8.04673 4.46023,-8.11179 0.21544,-0.0267 2.3047,-2.87961 4.6428,-6.33987 2.33812,-3.4602 6.37406,-9.40774 8.96879,-13.21675 2.59473,-3.80896 5.2038,-7.71965 5.79796,-8.69032 0.59417,-0.97069 2.22906,-3.34908 3.63311,-5.2853 1.40406,-1.93617 3.4558,-4.91715 4.55944,-6.62432 4.15295,-6.42396 5.10375,-7.79804 8.11642,-11.7295 4.23243,-5.52329 8.18275,-12.57548 8.58483,-15.32587 0.25465,-1.74205 0.83469,-2.62178 2.44911,-3.71452 2.21875,-1.50172 3.626,-4.93249 3.25417,-7.93335 -0.27494,-2.21905 -2.01682,-2.33531 -3.31265,-0.22107 l -1.08194,1.76522 0.0412,-1.83456 c 0.0328,-1.46109 -0.17251,-1.80809 -1.00841,-1.70451 -0.72005,0.0892 -0.20013,-0.84477 1.65588,-2.97467 1.48803,-1.70757 2.66464,-3.43448 2.6147,-3.83755 -0.05,-0.40313 0.27118,-1.11778 0.71361,-1.58812 0.68226,-0.72539 0.76503,-0.67867 0.54505,0.30764 -0.14265,0.63957 -0.58306,1.65152 -0.9787,2.24878 -1.13569,1.71462 -0.27662,3.81986 1.47043,3.6034 1.11133,-0.13771 1.71876,-0.82619 2.54121,-2.88046 1.37977,-3.44637 0.69494,-5.86816 -1.46252,-5.17192 -0.93879,0.30294 -1.44374,0.18725 -1.50985,-0.34635 -0.22509,-1.81657 -3.39229,0.10085 -6.81211,4.124 -1.1731,1.38006 -1.45726,1.50679 -1.55788,0.69466 -0.18329,-1.47928 -1.81256,-0.9971 -3.69262,1.09292 -0.91539,1.01759 -2.59597,2.77264 -3.73462,3.9001 -7.44486,7.37171 -20.25018,22.51463 -20.09541,23.76381 0.30193,2.43689 3.67258,0.68592 7.34518,-3.81559 2.29425,-2.81214 7.76191,-8.78797 6.9352,-7.57984 -0.34799,0.5085 -0.5572,1.53394 -0.46491,2.27873 0.13462,1.0865 0.48767,1.31309 1.78599,1.14636 1.19637,-0.15421 2.52836,-1.35052 5.11015,-4.5921 3.42595,-4.30137 4.16686,-4.88814 2.99925,-2.37527 -0.45427,0.97761 -0.39793,1.4912 0.25143,2.29166 0.70285,0.86646 0.57374,1.62445 -0.8064,4.73288 -0.90379,2.03571 -2.05573,4.29036 -2.55985,5.0104 -0.50412,0.72004 -1.17508,2.01373 -1.491,2.87485 -0.72709,1.98178 -4.17435,7.24571 -11.29141,17.24182 -3.08136,4.32788 -7.37435,10.56067 -9.53995,13.85077 -2.16562,3.29004 -4.10583,6.08557 -4.3116,6.21227 -0.20574,0.12679 -1.85082,2.42446 -3.65571,5.10607 -4.27418,6.35038 -3.6004,5.37426 -9.08581,13.16268 -6.00163,8.52133 -19.18143,25.09728 -19.65914,24.72491 -0.19644,-0.15311 0.9204,-1.88376 2.48185,-3.84582 1.56143,-1.96204 3.13506,-3.95353 3.49694,-4.42554 0.36186,-0.47193 2.62495,-3.34429 5.02909,-6.38297 3.2782,-4.14345 4.47018,-6.15952 4.76716,-8.0632 0.21782,-1.39607 1.36601,-4.10171 2.55154,-6.01253 2.42705,-3.91186 2.6202,-5.36556 0.64211,-4.83298 -0.80312,0.21622 -4.71628,4.95501 -10.21739,12.37319 -8.14469,10.983 -9.01048,11.95624 -10.01096,11.25357 -1.76674,-1.24086 -2.635,-0.77844 -6.63401,3.53281 -4.06478,4.38224 -5.27434,4.89326 -1.76723,0.74663 1.68532,-1.99256 2.0423,-2.85209 1.72665,-4.15726 -0.46189,-1.90981 -2.50634,-2.30608 -3.54309,-0.68665 -0.35397,0.55293 -0.87608,1.03415 -1.16025,1.0693 -0.28418,0.0352 -0.0525,-0.53148 0.51496,-1.25936 0.56739,-0.72788 0.94956,-1.98579 0.84925,-2.79534 -0.24866,-2.00686 -2.49321,-1.70317 -4.65844,0.6304 -2.18592,2.3558 -2.13839,1.55572 0.082,-1.38026 0.98878,-1.30742 1.76528,-2.63935 1.72558,-2.95981 -0.0868,-0.70069 13.76933,-18.26728 14.47809,-18.3551 0.27264,-0.0337 0.58821,-0.55812 0.70123,-1.1652 0.11301,-0.60708 1.27328,-1.97969 2.57837,-3.05011 1.3051,-1.07049 3.02092,-2.81543 3.81294,-3.87764 0.79203,-1.0622 1.7879,-1.9744 2.21305,-2.02708 0.42514,-0.0527 0.74276,-0.33981 0.7058,-0.63809 -0.0664,-0.53624 3.0648,-4.50947 12.11122,-15.36796 8.15103,-9.78381 10.66095,-13.13091 10.54545,-14.06299 -0.28707,-2.3169 -3.71312,0.59182 -11.3938,9.67324 -1.59576,1.88681 -4.07461,4.65193 -5.50856,6.14477 -1.43394,1.49283 -4.0408,4.37144 -5.79301,6.39689 -1.75219,2.02546 -3.7634,4.27352 -4.46934,4.99568 -12.8145,13.10902 -27.04865,31.59243 -27.56674,35.79621 -0.25462,2.06582 0.50161,3.16416 2.06463,2.99868 1.2505,-0.13223 1.21662,0 -0.47639,1.85242 -1.0024,1.09723 -2.25587,2.04866 -2.7855,2.11427 -1.57369,0.19498 -6.78363,7.68295 -6.56626,9.43734 0.31159,2.51483 2.38354,1.64197 5.38043,-2.26654 1.60252,-2.08994 3.07259,-3.4405 3.69932,-3.39845 0.79407,0.0536 0.24854,1.14856 -2.30679,4.63135 -3.71334,5.06117 -4.15067,7.31755 -1.48213,7.64649 1.23692,0.15245 1.42639,0.39056 1.06214,1.33498 -0.24385,0.63219 -0.36422,1.78818 -0.26748,2.56884 0.0967,0.78065 -0.2946,1.96454 -0.86965,2.63087 -1.40119,1.62377 -1.14545,3.42985 0.45758,3.23124 1.58727,-0.19665 4.34882,-2.32258 4.59633,-3.53841 0.10532,-0.51732 0.62435,-1.66672 1.15339,-2.5542 0.94281,-1.58171 0.95837,-1.58618 0.78384,-0.22693 -0.11019,0.85816 0.24049,1.74791 0.92,2.3343 1.03909,0.89664 0.87862,1.12362 -2.98831,4.22639 -3.34067,2.68054 -4.11006,3.08716 -4.21641,2.22882 -0.18371,-1.48267 -1.46508,-2.31924 -3.21962,-2.10213 -1.05544,0.13063 -2.23757,1.2093 -3.98008,3.63156 -1.36329,1.8952 -2.26433,3.01579 -2.00224,2.49008 0.26204,-0.52565 0.55389,-1.83981 0.64854,-2.92038 0.20458,-2.33489 -1.26607,-3.104 -2.718,-1.42147 -1.32233,1.53241 -3.03817,0.62649 -3.33392,-1.76016 -0.14563,-1.17562 -0.73521,-2.23139 -1.54535,-2.76792 -1.53283,-1.01479 -4.27663,-0.8201 -5.33243,0.37842 -0.79661,0.90433 2.33405,-3.65576 4.98173,-7.25627 2.11536,-2.8766 1.93856,-5.10882 -0.38185,-4.82134 -1.1568,0.14336 -1.98303,0.78601 -2.74256,2.13324 -1.25645,2.2286 -2.54514,2.78613 -1.76502,0.76359 0.27815,-0.72112 1.24676,-2.38795 2.15248,-3.70407 0.90574,-1.31607 1.77255,-2.81201 1.92621,-3.32421 0.28671,-0.95566 0.83977,-2.1938 2.30402,-5.15766 0.46002,-0.93109 0.79761,-2.006 0.75016,-2.3886 -0.0474,-0.38259 3.39386,-5.07165 7.64719,-10.42002 7.72595,-9.71509 9.46492,-11.75092 15.42627,-18.0598 7.85295,-8.31068 20.99438,-25.9607 20.7568,-27.87812 -0.14107,-1.13849 -1.65749,-1.23618 -2.93166,-0.18884 -0.40728,0.33478 -4.02921,4.75553 -8.04873,9.82387 -4.01948,5.06842 -8.3675,10.27987 -9.66225,11.58102 -13.34077,13.40689 -24.73577,28.29903 -29.13705,38.07922 -0.49987,1.11079 -2.17681,4.49568 -3.72644,7.52187 l -2.8175,5.50218 0.98792,2.54748 c 0.68104,1.75618 0.84444,2.91961 0.52597,3.74529 -0.73145,1.89645 -0.34068,3.05155 1.15933,3.42605 1.25236,0.31282 1.2903,0.40091 0.3885,0.9017 -2.88756,1.60361 -2.61785,10.77333 0.30625,10.41102 0.62577,-0.0775 1.18357,0.22812 1.23943,0.67919 0.12491,1.00805 1.7867,1.47796 3.09738,0.87588 0.53439,-0.24549 1.35644,-0.0845 1.82674,0.35785 1.08525,1.02091 2.43655,0.85905 3.54409,-0.42412 0.78976,-0.9152 0.86176,-0.84578 0.82495,0.79446 -0.0375,1.66826 0.0911,1.78093 1.79274,1.57005 1.23695,-0.15322 1.8687,0.06 1.94253,0.65605 0.17618,1.42176 3.03521,0.69279 5.06045,-1.29025 1.5942,-1.56101 1.74563,-1.61747 1.20218,-0.44785 -0.34199,0.73593 -0.81785,1.3624 -1.05745,1.39209 -0.23965,0.0298 -1.77104,1.1614 -3.40307,2.51488 l -2.96735,2.46087 -0.64231,-2.01356 c -0.6508,-2.03997 -1.57762,-2.4359 -2.60822,-1.11376 -0.95964,1.23112 -4.91135,1.59914 -6.21969,0.57925 -0.64706,-0.5046 -1.20923,-1.18218 -1.24937,-1.506 -0.0401,-0.32382 -0.84975,-0.49252 -1.79913,-0.37486 -1.246,0.15436 -2.13698,-0.23419 -3.20275,-1.3966 -0.81674,-0.8907 -2.0148,-1.54376 -2.68088,-1.4612 -1.09362,0.13544 -1.19796,-0.0987 -1.13523,-2.5495 0.065,-2.54005 -0.0109,-2.68763 -1.28947,-2.51132 -2.38777,0.32936 -3.10532,1.61633 -2.76697,4.96326 0.20477,2.0254 0.55299,3.0635 1.00886,3.00693 0.52951,-0.0656 0.54791,0.10368 0.0769,0.70785 -1.28562,1.64935 -0.51529,2.43417 1.91689,1.95283 3.07644,-0.60875 4.54183,0.43292 3.95902,2.81408 -0.69717,2.84829 -0.30421,3.98804 1.30882,3.78759 0.79041,-0.0979 1.56808,-0.46332 1.72811,-0.81195 0.51482,-1.12161 1.98297,-0.88225 2.13541,0.34822 0.10581,0.85363 0.66169,1.23041 1.95778,1.32666 0.99554,0.0739 1.85103,0.46479 1.90104,0.86868 0.10157,0.81957 4.32469,1.15328 5.65068,0.44653 0.51015,-0.27189 1.21977,-5e-5 1.76981,0.67799 1.02516,1.26382 3.00215,1.26555 3.99341,0.008 0.52134,-0.66374 0.59776,-0.61395 0.3856,0.25111 -0.22171,0.90409 0.0796,1.03634 1.8591,0.81586 1.56035,-0.19338 2.1548,-0.0115 2.24117,0.68549 0.0962,0.7759 0.51062,0.82503 2.27514,0.2694 1.18667,-0.3736 2.37901,-0.95482 2.64963,-1.2915 0.27068,-0.33674 1.05082,-0.68151 1.73369,-0.76613 0.68292,-0.0846 1.70777,-0.60651 2.27743,-1.15984 0.56962,-0.5533 1.58932,-1.08318 2.26594,-1.17746 3.6788,-0.51263 13.69979,-7.60205 16.4374,-11.6287 0.55621,-0.81813 2.31942,-2.61904 3.91825,-4.00202 5.67722,-4.91086 6.28966,-5.49136 8.32509,-7.89013 1.13193,-1.33396 2.25882,-2.45035 2.50419,-2.48074 0.24539,-0.0304 1.84875,-2.1794 3.56303,-4.77554 1.71428,-2.5962 4.86686,-7.10703 7.00574,-10.02415 7.16069,-9.7689 15.69164,-22.26656 16.92911,-24.80398 1.44747,-2.96798 3.05206,-5.31439 10.21763,-14.94174 2.94574,-3.95778 5.3214,-7.47429 5.27925,-7.81448 -0.0422,-0.34019 2.33053,-3.61283 5.2726,-7.27263 2.94209,-3.65974 6.67147,-8.70099 8.28754,-11.20277 1.61608,-2.50177 3.98586,-6.00475 5.26618,-7.78445 1.28034,-1.7797 2.96208,-4.14016 3.73721,-5.24547 2.93347,-4.18306 5.19044,-6.97246 6.80432,-8.40964 0.91817,-0.81761 2.56496,-2.94306 3.65957,-4.72324 1.0946,-1.78012 2.95655,-4.603 4.13767,-6.27296 1.18111,-1.67003 3.11026,-4.55493 4.28699,-6.41086 1.17672,-1.856 2.46909,-3.42844 2.87191,-3.4943 1.72346,-0.28188 0.68675,2.29488 -2.89879,7.20484 z m -20.67586,-37.78985 c -1.12035,0.13883 -4.04511,2.1536 -4.77001,3.28593 -0.33527,0.52373 -0.40613,1.33397 -0.15747,1.80053 0.49367,0.92622 2.88819,0.90746 2.77306,-0.0217 -0.0391,-0.31553 0.67282,-1.0832 1.58204,-1.70589 1.68304,-1.15273 2.09105,-3.54701 0.57238,-3.35884 z m -8.49682,7.63179 c -0.7637,0.0946 -2.03339,0.72442 -2.82201,1.3958 -1.67918,1.42955 -11.2427,11.44924 -14.92817,15.64029 -1.40312,1.59555 -4.69749,4.32183 -7.32083,6.05828 -10.8017,7.14997 -15.59779,11.32027 -17.481,15.20001 -0.46084,0.94945 -1.64181,2.27375 -2.62438,2.94283 -0.98256,0.66916 -3.11717,2.55326 -4.74357,4.18699 -1.62637,1.63373 -3.21275,3.0021 -3.52526,3.04082 -0.31251,0.0388 -1.14785,0.882 -1.85632,1.87397 -0.70847,0.99195 -2.58819,3.04068 -4.17717,4.55272 -5.85392,5.57051 -7.79416,9.03605 -4.85508,8.67188 1.11585,-0.13825 4.96717,-3.32312 5.2909,-4.37538 0.076,-0.24698 1.83837,-1.91041 3.91643,-3.69646 2.07805,-1.78606 4.02739,-3.78359 4.33188,-4.43889 0.30449,-0.65532 0.84111,-1.22708 1.1925,-1.27061 0.35139,-0.0435 1.17907,-0.81863 1.83931,-1.72239 0.66023,-0.90379 1.44864,-1.67402 1.75202,-1.7116 0.96404,-0.11944 5.71542,-5.56656 5.60847,-6.42969 -0.0564,-0.45558 0.15405,-0.86013 0.46778,-0.899 0.31372,-0.0388 2.26507,-1.49078 4.33635,-3.22638 2.07126,-1.73566 4.15588,-3.05905 4.63249,-2.9408 1.7816,0.44192 5.57422,-2.4588 13.09794,-10.01752 1.49322,-1.50018 3.95805,-3.95766 5.4774,-5.46109 2.48516,-2.4591 6.55651,-6.828 10.24039,-10.98872 0.73876,-0.83442 1.75165,-1.90146 2.25083,-2.37119 0.49919,-0.46973 0.99304,-1.60446 1.09743,-2.52157 0.16642,-1.46186 0.0187,-1.6459 -1.19833,-1.4923 z m -30.54717,15.06829 c -1.21346,-0.38104 -1.83853,-0.1576 -3.57781,1.27887 -2.23697,1.84748 -6.02243,6.32944 -5.93586,7.02806 0.0284,0.2292 -0.68304,0.85711 -1.58097,1.39532 -0.89793,0.53826 -2.4523,1.9398 -3.45416,3.11456 -1.00185,1.17477 -3.30354,3.79916 -5.11485,5.83194 -1.81131,2.03277 -4.44542,5.11651 -5.85355,6.85275 -1.40812,1.73622 -2.65618,3.16867 -2.77345,3.1832 -0.11727,0.0145 -3.43957,3.64217 -7.38289,8.06149 -4.10536,4.6008 -7.86645,8.28108 -8.79989,8.61075 -1.02127,0.36064 -3.42837,2.90189 -6.44423,6.80338 -2.64772,3.4252 -5.17588,6.27254 -5.61816,6.32734 -0.44228,0.0547 -1.26561,0.79885 -1.82967,1.65342 -1.87007,2.83321 -10.45244,12.23152 -12.36732,13.54303 -2.98601,2.04515 -13.87315,16.63972 -17.03789,22.83991 -0.71228,1.39546 -1.99899,3.61587 -2.85943,4.93432 -4.46145,6.83633 -6.50983,11.32647 -6.81816,14.94559 -0.0821,0.96446 -0.81554,2.55058 -1.62966,3.52473 -2.17308,2.60019 -3.03782,8.51226 -2.02947,13.87495 0.7835,4.16715 0.82247,4.23216 2.4162,4.03468 1.48064,-0.18344 1.62288,-0.43927 1.65572,-2.97867 0.0198,-1.52788 -0.0578,-3.53585 -0.1727,-4.46212 -0.15685,-1.2658 0.071,-1.71876 0.91709,-1.82357 0.86675,-0.10743 1.15009,-0.72718 1.2315,-2.69327 0.0582,-1.40457 0.35536,-3.25724 0.66042,-4.11701 0.30506,-0.85976 0.58904,-2.77803 0.63099,-4.26278 0.042,-1.48476 0.53759,-3.73733 1.10134,-5.00574 1.36149,-3.06308 7.17845,-13.00418 7.80242,-13.33407 0.27067,-0.14319 0.44751,-0.62055 0.39294,-1.06095 -0.0546,-0.44039 0.33343,-1.20582 0.86222,-1.70099 0.52879,-0.49515 2.16078,-2.79744 3.62668,-5.11622 4.5258,-7.15906 7.48679,-11.00168 9.40446,-12.20461 2.59562,-1.62822 5.22658,-4.0871 7.93821,-7.4191 1.28407,-1.57779 5.75401,-6.7533 9.9332,-11.50117 10.74537,-12.20744 10.52516,-11.96447 12.88445,-14.21842 1.91496,-1.82946 4.97699,-5.20019 6.91191,-7.6087 0.38763,-0.48252 0.67741,-1.09817 0.64397,-1.36806 -0.0335,-0.26995 0.98314,-1.29255 2.2591,-2.27245 1.27594,-0.97995 2.83279,-2.47618 3.45966,-3.32501 0.62687,-0.84883 2.32112,-2.76579 3.765,-4.25985 1.44388,-1.49407 2.7364,-3.20103 2.87227,-3.79325 0.13585,-0.59222 0.65276,-1.12703 1.14867,-1.18848 0.49589,-0.0614 1.55436,-0.93237 2.35214,-1.93539 0.7978,-1.00302 2.68607,-3.18731 4.19615,-4.85398 1.51008,-1.66666 3.12588,-3.49111 3.59066,-4.05437 0.4648,-0.56321 1.80943,-1.92553 2.98808,-3.02734 1.17864,-1.10186 2.31202,-2.37536 2.51859,-2.83013 0.2066,-0.45469 0.69261,-0.87449 1.08002,-0.93289 0.737,-0.11105 3.61992,-3.11167 3.54792,-3.69278 -0.0229,-0.18434 -0.70318,-0.54296 -1.51186,-0.7969 z m -13.24796,58.10699 c -0.56874,-0.14103 -2.0404,0.72646 -3.57137,2.10523 -2.39857,2.16018 -3.90716,3.73423 -9.58956,10.00558 -1.3185,1.45516 -1.99177,2.76945 -1.88015,3.67032 0.26988,2.17813 3.05687,1.54855 5.28219,-1.19322 0.97459,-1.20081 2.84661,-3.28026 4.16004,-4.62102 3.79306,-3.87207 6.79943,-7.84477 6.67803,-8.82466 -0.0615,-0.4962 -0.54712,-1.01022 -1.07918,-1.14223 z m 67.97345,-52.87644 c -2.45387,3.21109 -2.9328,3.65237 -1.87791,1.73029 0.77881,-1.41901 1.81691,-3.1617 2.3069,-3.87265 0.48997,-0.71094 1.57457,-2.31884 2.4102,-3.57315 1.51562,-2.27501 1.51802,-2.27609 0.98704,-0.4377 -0.29276,1.01357 -2.01456,3.78251 -3.82623,6.15321 z m -2.45433,-7.66067 c -2.08854,2.83711 -3.95556,5.03497 -4.14895,4.88425 -0.26232,-0.20446 4.79578,-9.90199 6.31047,-12.09851 0.22262,-0.32285 1.48126,1.01003 1.5791,1.67223 0.031,0.21106 -1.6521,2.705 -3.74062,5.54203 z m -13.99112,30.60615 c -3.31514,4.20931 -6.27233,7.95264 -6.57153,8.3185 -0.2992,0.36586 -4.08271,5.28649 -8.40779,10.93472 -4.3251,5.64824 -7.7915,10.1129 -7.70312,9.92148 0.46079,-0.99798 4.75028,-7.33478 7.72404,-11.41063 1.8625,-2.55275 4.93028,-6.98475 6.8173,-9.84889 4.13244,-6.27227 12.26349,-16.5003 14.22448,-17.89291 0.77821,-0.55265 2.21751,-2.13051 3.19845,-3.5063 0.98094,-1.37579 2.35441,-3.11017 3.05214,-3.85421 2.40845,-2.56827 -6.32401,9.7072 -12.33397,17.33824 z m -3.52602,-66.19243 c -0.7388,1.07456 -1.3019,2.28763 -1.25133,2.69571 0.11078,0.89405 -2.15411,1.24925 -4.42362,0.69375 -1.43277,-0.35069 -1.56033,-0.54101 -0.97522,-1.45498 0.37025,-0.57833 1.55358,-1.77279 2.62964,-2.65436 1.07605,-0.88156 2.28603,-2.00368 2.68882,-2.4936 3.59001,-4.36654 7.41031,-7.9951 8.56865,-8.13863 1.18751,-0.14713 0.87644,0.48845 -2.25822,4.61387 -1.99952,2.63148 -4.23994,5.66369 -4.97872,6.73824 z m 11.02285,42.65509 c -0.84308,0.848 -0.86648,0.82979 -0.24985,-0.19478 0.37422,-0.62176 0.78043,-1.14285 0.90269,-1.15801 0.48457,-0.06 0.23259,0.46211 -0.65284,1.35279 z m -23.88611,2.62198 -1.69923,1.96635 1.49216,-2.12774 c 1.39091,-1.98338 1.8271,-2.44405 1.88346,-1.98917 0.0126,0.10133 -0.74183,1.06908 -1.67639,2.15056 z m -5.8622,6.96567 c -0.71532,0.86082 -1.31701,1.43267 -1.33706,1.27077 -0.02,-0.16191 0.54878,-0.99872 1.2641,-1.85953 0.71532,-0.86081 1.31699,-1.43267 1.33705,-1.27076 0.02,0.1619 -0.54878,0.9987 -1.26409,1.85952 z m -7.23091,52.61001 c -9.08451,12.0237 -19.34109,26.58989 -23.71626,33.68145 -2.02947,3.28946 -7.26426,8.17784 -7.41911,6.92811 -0.0383,-0.30962 1.44139,-2.56997 3.28835,-5.02288 1.84694,-2.45297 3.70074,-5.21925 4.11954,-6.14728 0.41881,-0.92803 1.34714,-2.04706 2.06297,-2.48672 0.71582,-0.43966 1.99687,-2.10091 2.84678,-3.69163 0.84991,-1.59066 1.74856,-2.91734 1.99699,-2.94812 0.24844,-0.0308 1.31919,-1.28386 2.37947,-2.78456 6.18867,-8.75941 12.43809,-17.0459 15.83217,-20.99281 5.98028,-6.95435 5.41252,-5.54015 -1.3909,3.46444 z m -33.6761,44.22755 -1.32679,1.35359 0.95746,-1.46369 c 0.5266,-0.80505 1.22548,-1.49689 1.55309,-1.53746 0.3276,-0.0404 0.4938,0.009 0.36934,0.11005 -0.12448,0.10111 -0.82337,0.79296 -1.5531,1.53751 z m -5.21919,8.34078 c -2.06331,1.74962 -1.76055,0.53487 0.42351,-1.69932 1.47841,-1.5123 1.80208,-1.67296 1.43076,-0.71022 -0.26394,0.68429 -1.09836,1.76861 -1.85427,2.40954 z m -6.25262,7.32426 c -0.79716,0.42489 -0.80217,0.28998 -0.0395,-1.06397 0.78619,-1.39571 2.78277,-3.06444 3.82025,-3.19299 0.61187,-0.0759 -2.74676,3.70585 -3.78073,4.25696 z m -16.60519,-1.14047 c -0.87201,0.61554 -1.04332,0.59091 -0.8659,-0.12432 0.25736,-1.03756 1.78437,-2.00374 1.88488,-1.19263 0.0374,0.30229 -0.42109,0.89492 -1.01898,1.31695 z m -4.74866,-11.38499 c -1.62281,1.66017 -3.0985,3.31974 -3.27932,3.68789 -0.18082,0.36819 -0.89778,1.27792 -1.59325,2.02165 l -1.26448,1.35228 0.51917,-1.38013 c 0.28554,-0.75905 1.49427,-2.38841 2.68606,-3.62072 1.19178,-1.23231 2.97451,-3.10829 3.9616,-4.16882 0.98708,-1.06058 1.82307,-1.69931 1.85775,-1.41938 0.0347,0.27981 -1.26471,1.86712 -2.88753,3.52723 z m -0.45838,-7.61384 c -0.84307,0.848 -0.86647,0.8298 -0.24983,-0.1948 0.37422,-0.62172 0.78042,-1.14285 0.90267,-1.15796 0.48458,-0.06 0.2326,0.46206 -0.65284,1.35276 z"
         style="fill:#000000" />
      <text
         transform="scale(0.98020362,1.0201962)"
         sodipodi:linespacing="125%"
         id="text3119"
         y="541.94171"
         x="-296.86093"
         style="font-size:370.47418213px;font-style:normal;font-variant:normal;font-weight:normal;font-stretch:normal;text-align:start;line-height:125%;letter-spacing:0px;word-spacing:0px;writing-mode:lr-tb;text-anchor:start;fill:#000000;fill-opacity:1;stroke:none;font-family:Valentina;-inkscape-font-specification:Valentina"
         xml:space="preserve"><tspan
           y="541.94171"
           x="-296.86093"
           id="tspan3121"
           sodipodi:role="line">Sickle</tspan></text>
    </g>
    <flowRoot
       xml:space="preserve"
       id="flowRoot3123"
       style="font-size:40px;font-style:normal;font-weight:normal;line-height:125%;letter-spacing:0px;word-spacing:0px;fill:#000000;fill-opacity:1;stroke:none;font-family:Sans"
       transform="translate(-41.287616,-161.45536)"><flowRegion
         id="flowRegion3125"><rect
           id="rect3127"
           width="85.714287"
           height="88.571426"
           x="-482.85715"
           y="408.30399" /></flowRegion><flowPara
         id="flowPara3129" /></flowRoot>  </g>
</svg>
